<svg xmlns="http://www.w3.org/2000/svg" viewBox="0 0 121.24 138.05"><defs><style>.cls-1{opacity:0.09;}.cls-2{fill:#9b542c;}.cls-3{fill:#cc6728;}.cls-4{fill:#b2202a;}.cls-5{fill:#318942;}.cls-6{fill:#3cb54a;}.cls-7{fill:#cd2127;}.cls-8{fill:#f8d00c;}.cls-9{fill:#fff;}</style></defs><g id="Layer_2" data-name="Layer 2"><g id="Layer_1-2" data-name="Layer 1"><path class="cls-1" d="M102,124.33c-1.38.14-1.84.3-.94.54.42.11-3,0-3.58.27s.77.49.77.49a41.35,41.35,0,0,1-10.43-1.52c-.61-.16,2.42-.43,3.21-.43s3.27.34,4.08.35,4.33.18,4.69.14,1.38,0,1.77,0S102,124.33,102,124.33Zm-36.46,3.45-1.66.14c-.36,0-4.37,0-5.19,0s-3.49,0-4.28,0-3.22.27-2.6.43c6.36,1.64,10,1.15,10,1.15s-1.24-.31-.69-.54,3.9-.33,3.28-.4c-1.1-.14-.59-.55.79-.69C65.24,127.9,66,127.75,65.57,127.78Zm8.55-5.71a78.13,78.13,0,0,1,8.82-.73,9.13,9.13,0,0,1,4.7,1.91,13.86,13.86,0,0,1-2.72.08,22.92,22.92,0,0,0-2.87,0c-.71.12-.55.34,1,.5s2.85.2,4.34.47c.88.15,8.56,1.33,9.75,1.42s2-.27,1.5-.4,0,0-1.11,0a65.28,65.28,0,0,1-7.36-.94c-.53-.2.4-.09,1.53,0s7,.63,8.61.63,1.81-.18,1.2-.34,0,0-1.06.05-7.19-.43-8-.52-.9-.53.37-.32,7.69.38,9,.47.13-.51-.6-.3-7.44-.48-9.43-.75A88.61,88.61,0,0,1,83,120.81a9.86,9.86,0,0,0-2.49-.09c-1.06,0,1.4.34-.32.35s-7.66.63-8.65.71-.91.27-.91.27A7.78,7.78,0,0,0,74.12,122.07Zm-28.73,4.56a7.56,7.56,0,0,0,1.66,1,38.46,38.46,0,0,0-4.54,0c-.46.05-.14.16.49.24,1,.13,7.24.74,8.57.83s5.94.88,8.49,1,2-.28,2-.28-.81,0-1.6,0-5.27-.74-6.1-.87-.33-.16,1.2-.2,6,.34,6.55.36c.76,0,3,0,2.59-.24-.14-.06-.72.05-1.81,0-2.54-.15-6.51-.28-6.35-.38s9.86,0,9.58-.32-1.1-.08-2.23,0-13.69-.1-14.76-.3-2.65-.86-1.64-.82.1-.21.06-.35-1.42.06-1.21-.23-2.4-2-2.7-2.18a4.28,4.28,0,0,0-2.07-.34c-1.49-.06-1.53.2-1.53.2S45.26,126.34,45.39,126.63ZM64.3,113.21c-4.3-.6-11.39-1.18-16.44-1.48-6.09-.37-14-.44-20.11-.32-5.25.1-5.94.38-11,.41-8.1.05-13.66,1.29-15.52,2.45s-1.65,2.62,1.28,4.08a41.68,41.68,0,0,0,9.25,2.85,148.45,148.45,0,0,0,15.37,2.28c4.36.44,9,.76,13.67,1,4.43.18,8.92.23,13.31.15,5.21-.11,9.78-.4,13.58-.85a55.09,55.09,0,0,0,7.66-1.35c3.07-.81,4.8-1.81,5-2.9.12-.83-.68-1.72-2.5-2.62C75,115.47,70.75,114.11,64.3,113.21ZM44,112.37a29.48,29.48,0,0,0,3.76-.43c1.3-.22,5.09-.34,6.92-.44s.82-.67.66-.82a16.54,16.54,0,0,0-2.4-.41s-1.69-.12-3-.11-1,.52-.38.39a5,5,0,0,1,.81-.1,5.61,5.61,0,0,1,2.65.32c.8.32,0,0,0,.28s-.58.07-2.67.25S40,112,40,112C40.59,112,42.78,112.4,44,112.37Zm-11.83-5.05s3.51.74,3.56,1.2a2.7,2.7,0,0,0,.61,1.67c.43.36,1.56.77.24,1s-2.51.38-2.29.7,2.81.42,4.44.38,4.26,0,3.56-.07a11.79,11.79,0,0,1-1.9-.75c-.8-.26-1.13-.86-.94-1.23s.28-.54-.49-.93-1.23-.68-2-1A14.06,14.06,0,0,0,32.18,107.32Zm-3.35,4.52-3.73,0-4.27,0a75.94,75.94,0,0,0-8,.16c-3.41.24-2.35.19-5.44.45s-6.82.56-7,.82l3.28-.31c.45-.13,2.46-.2,4.22-.34s4.21-.44,5.91-.44,1.57-.07,3.44-.07S28.83,111.84,28.83,111.84Zm10.62.26c-.75,0-1.47-.37-1.1-.55a29.11,29.11,0,0,1,4.36-.41c1.08,0,.85-.8,1-.66s-2.07.69-4.09.76-3.08,0-4.52,0a11,11,0,0,0-3.34.77C33.7,112.18,40.19,112.11,39.45,112.1Zm-7.94,0s2.45-.37.12-.52-6.3-.33-7.14-.28-5,.24-5.44.33,3.6-.07,4.54,0a11.93,11.93,0,0,1,2.51.23c.64.19.71.36.71.36A32.6,32.6,0,0,0,31.51,112.1Zm7.23.22s-2.73-.78-3.83-1.19a29,29,0,0,1-3.8-2c-.19-.17.89-.28.42-.44a13.91,13.91,0,0,0-3.6.07l.71.36c.27.14.19.17-.23.46s2.51,2.48,2.51,2.48C32.75,112.28,38.74,112.32,38.74,112.32ZM56,120.17a87.85,87.85,0,0,0,11.29.45c1.58,0,1.59-.28,1.6-.71s.88-.79,4.57-1.32,15.21-.47,16.49-.48,1.84-.59,1.53-.82a5.53,5.53,0,0,0-2.42-.05,52.78,52.78,0,0,1-6.46.23c-4.06,0-12.05-1-17.5-1s-14.85.86-14.85.86C44.47,118.43,52.32,119.61,56,120.17Z"/><path class="cls-2" d="M117.11,110.39c-1.92.66-2.82,1.56-2.34,3.11.23.74-3.52-.22-4.77,1.19a2.84,2.84,0,0,0-.25,3.06s-5,.23-8.53-10.39c-.35-1,3.79-2.3,4.71-2.22s3,2.45,3.9,2.63,4.61,1.55,5.11,1.38,1.54.3,2.08.13S117.11,110.39,117.11,110.39Z"/><path class="cls-2" d="M66.27,127.41c-1.92.66-3.46,3.07-2.5,4,.54.53-3.46.59-4.71,2a3.63,3.63,0,0,0-.46,3.33s-5.38,2.52-8.92-8.11c-.35-1,3.08-2.34,4-2.26s4.09.22,5,.39a39.49,39.49,0,0,0,6,.59c.5-.17,1.71-.46,2.25-.64S66.27,127.41,66.27,127.41Z"/><path class="cls-3" d="M86.11,93a2.43,2.43,0,0,1,1.67-1.54c1.33-.34,9.67-3.41,11.67-3.24s-.17-1.87,1.17-2,2.5,0,2.67.85,2.67,14.33,4.33,16.21,7.84,6.82,9.18,5.63,1.33,2.56,0,1.87-8.34-2.55-9.34-3.92-1.84,1.19-1.17,1.88,6.65,4.26,8,4.09,1-1.19,1.34-.17-.33,2.05-2.17,1.88-7.34-4.35-8.51-4.82-2-1.23-1.83,0,5,6.52,6.34,6.52,1-.85,1.33,0-1.5,2.9-2.67,2.22-7.33-8.64-8-9.68c-1.11-1.75-2.54-2.09-3.95-3.28s-1.1-2.49,0-3.12,2.07-.09,3.46,0,3,.72,3.31-.14,1.34-11.29-1-12-10.28,2.49-11.9,3.34S87.94,95.2,86.11,93Z"/><path class="cls-3" d="M46.43,100.15a1.81,1.81,0,0,1,2.24-1,1.93,1.93,0,0,1,1.6,2.31c0,1-1,11.68-1.92,13.38s1.13.69.85,1.54.23,2.39-.85,2-.75,3.75,0,5.12,14.81,4.09,16.37,3.58,3.08-1.92,2.65.06-11.21-.06-11.82.79c-.43.6,3.86,1.86,6.47,3,1.11.5,2-.12,2,.29,0,1.36-2.72,1.36-3.54,1.11-.59-.19-4.93-2.9-6.76-2.9s-2.5.17-1.84,1,3.91,6.25,5,6a5,5,0,0,1,2-.06s-.17,2.28-2.91,1.43-6.24-6.14-7.58-6.83a67.66,67.66,0,0,1-8-6c-.53-.6-.65-1.3,0-1.53,2.33-.87,5.33.34,5.33.34a37,37,0,0,1,.5-6.49C46.76,115.68,46.43,100.15,46.43,100.15Z"/><path class="cls-4" d="M106.39,62.66a41.69,41.69,0,0,1-3.19,16A43.67,43.67,0,0,1,90.75,95.52a45.43,45.43,0,0,1-12,7.17,47.25,47.25,0,0,1-32.72,1,45.73,45.73,0,0,1-13.6-7.35A43.66,43.66,0,0,1,19.94,80.8,42,42,0,0,1,23.79,38c4.83-6.73,14.14-13.5,23.62-12.84C53.34,25.59,54.78,24,61.1,24c7.38,0,16.32,1.41,22.53,4.3,5.14,2.4,12,6.73,15.58,10.85C104.59,45.36,106.39,54,106.39,62.66Z"/><path class="cls-5" d="M73.86,29.18s10.84-2.3,13.68-3.11,3,.53,3.67-1.17.83.35.67-1.7S90.71,20.47,89.54,21s-.17-.17-1.17.51-.16-2.35,1.34-2.28a8.44,8.44,0,0,1,3.17,1s2,1.78,1.83,2.73-.33,4.52-2.67,4.86-7,.64-9,1.77S79.2,31.66,77.7,31.7,74.69,28.83,73.86,29.18Z"/><path class="cls-5" d="M75.7,0S78,4.9,77,7.65a80.09,80.09,0,0,0-3.17,10.09c-.33,2.22,0,4.81-2.15,6.33s-3.79,2-4.26,3.91,2.27,2.86,4.26,2.8,4.89.6,4.28,0-.13-3.07-.46-4.71.67-5.25,1.75-7.47,1.59-3.24,1.59-5.63.16-4.27,0-6.32S78.2,1,75.7,0Z"/><path class="cls-5" d="M65.18,24.8s-1.55-.69-3.93-1.78L56.74,21c-4.76-2.18-4.66-2.52-9.26-2.88s-3.28-.12-7.61-.21-9.49-.33-10.73.91l4.72,0c1-.47,3.47.07,5.87.21s6.27-.33,8.09.45,1.94.39,4,1.23S65.18,24.8,65.18,24.8Z"/><path class="cls-6" d="M64.35,28s4-4.44,5.68-4.27,2.66.85,5.17.68,6.33-3.24,6.5-4.09S80.37,24.08,79,24.17s-5.16.94-6,2-.82,3.24,0,3.41S66.19,29.37,64.35,28Z"/><path class="cls-6" d="M63.85,28.59s3.67-1.88,1.34-3.07-6.53-2.73-7.6-2.56-6.41.85-7.08,1.36,4.34,0,5.34.34,2,.5,2.36,1.7a4.54,4.54,0,0,1,0,2.23S62.08,29.93,63.85,28.59Z"/><path class="cls-6" d="M63.19,28.49S64.85,15,66,13.31s1.34-1.88,1.34-2.73V8.36c0-.85,4.17-1,4.33,0s-1.33,1.54-1.5,2.56A95.93,95.93,0,0,0,70,23.2c.33,2.56,1.68,7.58,1.68,7.58S64.85,29.86,63.19,28.49Z"/><path class="cls-7" d="M106.65,63.31a39.16,39.16,0,0,1-3,15.08A41.09,41.09,0,0,1,92,94.2,43,43,0,0,1,80.68,101a44.5,44.5,0,0,1-30.77.91A43.31,43.31,0,0,1,37.12,95,41.35,41.35,0,0,1,25.37,80.37,39.55,39.55,0,0,1,29,40.15c4.55-6.33,13.29-12.7,22.21-12.08,5.57.39,6.93-1.09,12.87-1.09C71,27,79.41,28.31,85.25,31c4.84,2.25,11.29,6.32,14.65,10.2C105,47,106.65,55.18,106.65,63.31Z"/><path class="cls-3" d="M73.52,62s13-4.43,19.18-3.41,13.18,7.77,17.85,8.32,6.84-.06,8-.61,2.83-.79,2.66.61-2.14,4.78-3.66,4.71-14.67-1.84-20.18.93S90,77.35,89,79.91s-1.67,4.26-3.5,4.09-9-.34-12-4.09S64.18,68.14,73.52,62Z"/><path class="cls-8" d="M75.54,62.42s12.46-3.93,18.37-3,12.61,6.88,17.08,7.37,6.55-.06,7.67-.54,2.71-.71,2.55.54-2,4.23-3.5,4.17-14-1.63-19.33.82-7,4.26-8,6.52S88.8,82.06,87,81.91s-8.62-.3-11.5-3.63S66.6,67.86,75.54,62.42Z"/><path class="cls-3" d="M82,67.82s-2.51-3.68-4.17-3-1.34,1.32,0,2A13.73,13.73,0,0,0,82,67.82Z"/><path class="cls-3" d="M94.93,61.65c-1.89-.51-3.9-1-3.4,0s4.84,2.9,4.51,2.13S94.93,61.65,94.93,61.65Z"/><ellipse cx="61.35" cy="50.51" rx="4.56" ry="6.81"/><ellipse class="cls-9" cx="64.15" cy="47.23" rx="1.73" ry="2.52"/><ellipse class="cls-9" cx="61.78" cy="51.51" rx="1.17" ry="1.76"/><ellipse cx="99.13" cy="50.51" rx="3.07" ry="5.49"/><ellipse class="cls-9" cx="101.01" cy="47.87" rx="1.17" ry="2.03"/><ellipse class="cls-9" cx="99.42" cy="51.32" rx="0.79" ry="1.42"/></g></g></svg>