<svg id="Layer_1" data-name="Layer 1" xmlns="http://www.w3.org/2000/svg" viewBox="0 0 612.61 258.93"><defs><style>.cls-1{fill:#fff;}</style></defs><path class="cls-1" d="M458,134.43a2.57,2.57,0,0,0,.55-.89C458.65,133,458.43,133.51,458,134.43Z" transform="translate(0.56 -93.5)"/><path class="cls-1" d="M52,258.67a.85.85,0,0,0,.23-.3C52.25,258.2,52.15,258.36,52,258.67Z" transform="translate(0.56 -93.5)"/><path class="cls-1" d="M288,221.06a1.34,1.34,0,0,0-.25-.56C287.53,220.27,287.69,220.54,288,221.06Z" transform="translate(0.56 -93.5)"/><path class="cls-1" d="M67.52,264.74a.57.57,0,0,0-.1-.22C67.34,264.43,67.4,264.54,67.52,264.74Z" transform="translate(0.56 -93.5)"/><path class="cls-1" d="M184.08,241.27a1.77,1.77,0,0,0,.58-.35C184.89,240.66,184.61,240.87,184.08,241.27Z" transform="translate(0.56 -93.5)"/><path class="cls-1" d="M243.72,194.86a.36.36,0,0,0,.13-.08C243.91,194.72,243.84,194.77,243.72,194.86Z" transform="translate(0.56 -93.5)"/><path class="cls-1" d="M221.42,211.86a12.83,12.83,0,0,0,3.46,2.78,13.23,13.23,0,0,0,5.07,1.57,13.9,13.9,0,0,0,4.22-.21,14.58,14.58,0,0,0,2.39-.72,13.35,13.35,0,0,0,3.64-2,13.2,13.2,0,0,0,3.18-3.58,14.64,14.64,0,0,0,1.49-3.29,8.71,8.71,0,0,0,.46-4.17,14.29,14.29,0,0,0-2-4.74,19.29,19.29,0,0,1,2,.72c.65.24,1.26-.69,1.46-.91s0-1,0-1a2.36,2.36,0,0,0-.65-.72c-.37-.23-1.07.46-.71.42s0,0,.39,0,.52.35.24.91,0,0-.44.36-.27,0-1.13-.21c-.33-.07-1-.25-1.74-.45a11.56,11.56,0,0,0-1.28-1.36,1,1,0,0,1,.12-.19,4.85,4.85,0,0,1,1,.3c.25.12.86-.34,1.16-.56a3.63,3.63,0,0,1-2.09.12A6.66,6.66,0,0,1,243,193.7a3.6,3.6,0,0,0,1.3-1.27c.38-.64.73-1.11,1-1.68s.73-1.59.25-2.21a4.2,4.2,0,0,1-.88,2.22,27.17,27.17,0,0,0-2.42,2.23c-.44.54-.76,1.28-1.56,1.37h0a3.84,3.84,0,0,0-.36-.31.69.69,0,0,1,.07-.15,30.26,30.26,0,0,1,2-3.24c.21-.25.67-.17.79-.47s-1-.83-1.11-.61-.21.36-.35.59-.21.25-.78.54a17.47,17.47,0,0,0-2.29,2.54l-.06,0c-.11-.17-.26-.37-.42-.61l-.83-1.18c-.87-1.25-.79-1.33-1.91-2.07s-.82-.49-1.91-1.13-2.38-1.42-2.89-1.27l1.21.66c.34,0,.88.5,1.47.88a8.91,8.91,0,0,1,2,1.26c.34.46.44.37.82.88s1.49,1.67,2.22,2.43l-.21-.12a3.54,3.54,0,0,0-.9-.87,11.81,11.81,0,0,0-2-.64c-.21,0,.74.46,1.16.72a7.28,7.28,0,0,1-2.09-.93c-2.32-1.51-5.78-1-8.09.08a14,14,0,0,0-6,5.41,13.31,13.31,0,0,0-1.84,5.4,12.81,12.81,0,0,0,.72,5.87A12.52,12.52,0,0,0,221.42,211.86Z" transform="translate(0.56 -93.5)"/><path class="cls-1" d="M196.17,236.45a1,1,0,0,0-.2-.45C195.8,235.81,195.93,236,196.17,236.45Z" transform="translate(0.56 -93.5)"/><path class="cls-1" d="M504.4,105.69a1.4,1.4,0,0,0-.25-.56C503.94,104.91,504.1,105.18,504.4,105.69Z" transform="translate(0.56 -93.5)"/><path class="cls-1" d="M612.05,135.34c-3.82-2.76-5.8-5.12-10.11-6.75a35.57,35.57,0,0,0-16.54-3,40.82,40.82,0,0,0-7.63,1.48q-.62-1.2-1.32-2.37a45.4,45.4,0,0,0-12.32-13.29,53.71,53.71,0,0,0-12.27-6.74,35.45,35.45,0,0,0-16.54-3c-6.12.48-14.49,3.47-20.56,6.44a79.69,79.69,0,0,1,4.28-7.56c1.41-2.44-1.92-5.09-2.71-5.9s-4-.15-4-.15A10.5,10.5,0,0,0,509,96.81c-1.18,1.37,1.13,4.26,1.21,2.84s0,0,.37-1.46,1.78-1.93,3.88-.66,0,0,1.14,1.81-.28,1-1.6,4.27c-.52,1.27-1.73,3.87-3,6.55a59.76,59.76,0,0,0-6.35,4.53,8.48,8.48,0,0,1-.7-.5,21.24,21.24,0,0,1,1.92-3.87c.64-.92-.79-3.44-1.47-4.63.43,1.6.34,5.82-.92,8.08a23.07,23.07,0,0,1-4.28-5.66c-1.33-2.57-1.95-3.75-4.25-5.41s-4-3.12-6.09-4.38-5.93-3.28-8.77-1.63c0,0,6.46,1.2,8.37,4.06s5.49,8.14,7.38,10,4.65,3.31,4.5,6.42h0a15.77,15.77,0,0,0-1.49,1.29l-.59-.3c-2.72-1.46-10.86-7.82-11.73-8.68s-.24-2.64-1.35-3.2-4,3.5-3.22,4.1l2.14,1.54c.82.59.86.86,1.64,3.15.49,1.42,5.22,6.19,8.73,9.59l-.16.2-2.74,1.46c-1.53.81-3.35,1.78-5.34,2.82a57.32,57.32,0,0,0-6.09,3.34,15.06,15.06,0,0,0-4.73-1.12c-3.16-.13-4.92,5.84-2.81,4.49s0,0,2.46-1a3.3,3.3,0,0,1,2.59-.09c-.32.34-.67.7-1.06,1.13-3.76,4.1-2.55,3-5.86,7l-2,2.47c-2.62.63-6.4,1.44-10.29,2.26a102.89,102.89,0,0,0-13-3.64,11.35,11.35,0,0,1,0-1.43,40,40,0,0,1,7.49-1.46c2-.12,4.08-4.56,5.07-6.67-1.84,2.2-7.94,6.42-12.46,7.09a37.65,37.65,0,0,1,3.7-11.39c2.28-4.37,3.33-6.39,3.33-11.09s.36-8.4,0-12.43-1.4-11.09-6.67-13.11c0,0,4.92,9.66,2.81,15.08s-6,15.5-6.68,19.87.06,9.46-4.54,12.46h0a27.28,27.28,0,0,0-3.37-.63c-.06-.38-.12-.74-.17-1.08-.7-5,0-22.18.36-24.19s3.51-3,3.16-5-9.14-1.68-9.14,0v4.36c0,1.68-.35,2-2.81,5.38-1.53,2.09-3.47,13.16-4.71,21.22h-.46l-4.88-2.08c-2.73-1.15-6-2.54-9.51-4.05-10-4.31-9.8-5-19.49-5.67s-6.9-.24-16-.43-20-.64-22.61,1.81l9.94-.09c2.13-.92,7.3.14,12.35.42s13.21-.66,17.06.89,4.09.76,8.33,2.42c3,1.16,15.44,4.67,22.79,6.71l-1.79,0c-3.77-1.33-7.42-2.31-8.76-2.11-2.26.33-13.51,1.68-14.91,2.69-1.2.86,6.28.25,9.81.47-4.86.81-8.94,1.7-16.34,1.21-20-1.3-39.57,12-49.75,25.3a79.25,79.25,0,0,0-16.8,48.53v.1l-.86,0c-6.12.48-14.49,3.48-20.56,6.44a82.27,82.27,0,0,1,4.28-7.56c1.41-2.44-1.92-5.08-2.71-5.89s-4-.16-4-.16a10.7,10.7,0,0,0-3.32,2.29c-1.18,1.37,1.13,4.26,1.21,2.84s0,0,.37-1.45,1.78-1.93,3.88-.67,0,0,1.14,1.81-.28,1-1.6,4.27c-.52,1.27-1.73,3.87-3,6.56a57.41,57.41,0,0,0-6.35,4.53,6.8,6.8,0,0,1-.7-.51,21.93,21.93,0,0,1,1.92-3.87c.64-.92-.79-3.43-1.47-4.62.43,1.6.34,5.82-.92,8.08a23.12,23.12,0,0,1-4.28-5.67c-1.33-2.56-2-3.75-4.25-5.4s-4-3.12-6.09-4.39-5.93-3.27-8.77-1.62c0,0,6.46,1.2,8.37,4.05s5.49,8.14,7.38,10,4.65,3.31,4.5,6.43h0a15.77,15.77,0,0,0-1.49,1.29l-.59-.31c-2.72-1.46-10.86-7.81-11.73-8.68s-.24-2.64-1.35-3.19-4,3.5-3.22,4.09l2.14,1.54c.82.59.86.87,1.64,3.15.49,1.43,5.22,6.19,8.73,9.59l-.16.2-2.74,1.46-5.34,2.83c-5.63,3-5.88,2.64-9.64,6.73-2.12,2.31-2.66,3-3.32,3.83a6.41,6.41,0,0,0-1.62-1.77c-.26-.49-.51-1-.8-1.46a36.65,36.65,0,0,0-10-10.75,43.73,43.73,0,0,0-9.92-5.45,28.67,28.67,0,0,0-13.38-2.42c-5,.39-11.72,2.81-16.63,5.21A64.55,64.55,0,0,1,208,232.3c1.13-2-1.56-4.11-2.2-4.76s-3.22-.13-3.22-.13a8.54,8.54,0,0,0-2.69,1.85c-.95,1.11.91,3.45,1,2.3s0,0,.3-1.18,1.44-1.56,3.13-.53,0,0,.93,1.46-.23.83-1.3,3.45c-.42,1-1.4,3.13-2.43,5.31a45.12,45.12,0,0,0-5.14,3.66c-.18-.12-.37-.25-.57-.41a17.32,17.32,0,0,1,1.56-3.13c.51-.74-.64-2.78-1.2-3.74a11.24,11.24,0,0,1-.74,6.53A18.6,18.6,0,0,1,192,238.4c-1.08-2.07-1.58-3-3.44-4.37-1-.7-1.82-1.36-2.64-2q.33-.47.66-1c1.6-2.66,3-4.66,4.24-7s3.05-6.66,1.05-9.28c0,0-.78,6.84-3.7,9.31-1.67,1.42-4.15,3.53-6.31,5.51-1.65-.76-3.68-1.32-5.32-.37a19.48,19.48,0,0,1,4.24,1.37A33.19,33.19,0,0,0,178,233.4c-1.85,2.27-3.19,5.37-6.56,5.77h0a14,14,0,0,0-1.51-1.3l.28-.66c1.36-3.05,7.56-12.54,8.42-13.59s2.82-.72,3.33-2-4.09-3.52-4.66-2.57l-1.49,2.48c-.57,1-.86,1-3.26,2.25-1.5.75-6.25,6.47-9.63,10.68l-.23-.14-1.79-2.54-3.47-5c-3.64-5.25-3.31-5.57-8-8.69s-3.44-2.07-8-4.74-10-6-12.15-5.33l5.1,2.75c1.4.07,3.68,2.12,6.16,3.71s7,3.33,8.4,5.29,1.83,1.58,3.43,3.71c1.11,1.49,6.29,7,9.35,10.2l-.91-.52c-1.47-1.81-3-3.39-3.75-3.65-1.27-.45-7.46-2.85-8.53-2.67-.9.15,3.12,1.91,4.85,3a31.58,31.58,0,0,1-8.75-3.91c-9.75-6.35-24.3-4.31-34,.33a58.75,58.75,0,0,0-25.1,22.73,56.75,56.75,0,0,0-6.08,14.11,25.42,25.42,0,0,0-7.84,2.48,30.33,30.33,0,0,1,1.66-2.93c.54-.94-.75-2-1-2.28s-1.55-.06-1.55-.06a4.11,4.11,0,0,0-1.28.89c-.46.53.43,1.65.47,1.1s0,0,.14-.57.69-.74,1.5-.25,0,0,.44.7-.11.39-.62,1.65c-.2.49-.67,1.5-1.16,2.54a21.42,21.42,0,0,0-2.46,1.75,2.12,2.12,0,0,1-.28-.2,8.81,8.81,0,0,1,.75-1.49c.24-.36-.31-1.33-.57-1.79a5.41,5.41,0,0,1-.36,3.12,8.58,8.58,0,0,1-1.65-2.19,4.75,4.75,0,0,0-1.65-2.09c-.89-.64-1.55-1.21-2.36-1.7l0,0c.07-.24.12-.45.17-.58.2-.64-1.13-2-1.13-2a6.53,6.53,0,0,0-2.27-1c-1.11-.17-2,1.87-1.19,1.48s0,0,.91-.26,1.53.26,1.54,1.56a2.05,2.05,0,0,0-1.38.2,9.44,9.44,0,0,1,1.37.39c0,.7-.06-.28-.62.71s-.65.17-2.83.5c-.85.12-2.64.31-4.5.49a34.09,34.09,0,0,0-4.41-1.8,2.35,2.35,0,0,1,.06-.51,14.94,14.94,0,0,1,2.7-.22c.7,0,1.64-1.44,2.08-2.14a9.43,9.43,0,0,1-4.7,2,13.5,13.5,0,0,1,1.8-3.87A7.26,7.26,0,0,0,50.72,253c.2-1.66.49-2.95.54-4.39s0-4-1.78-4.88c0,0,1.31,3.6.33,5.42a53.16,53.16,0,0,0-3.22,6.74c-.43,1.51-.39,3.34-2.14,4.21h0a9.28,9.28,0,0,0-1.16-.35c0-.14,0-.27,0-.39a60.82,60.82,0,0,1,1.18-8.51c.21-.7,1.37-.93,1.33-1.65s-3.15-1-3.22-.37-.12.95-.19,1.54-.21.7-1.23,1.78c-.63.68-1.79,4.5-2.58,7.29l-.16,0-1.63-.92-3.17-1.81c-3.35-1.92-3.24-2.15-6.63-2.78s-2.42-.36-5.63-.79-7-1-8-.26l3.5.36c.8-.24,2.57.34,4.34.64s4.68.3,6,1,1.41.43,2.83,1.18c1,.53,5.24,2.27,7.74,3.28l-.63-.08a10.15,10.15,0,0,0-3-1.1c-.82,0-4.84.06-5.38.36s2.21.34,3.44.56a21.25,21.25,0,0,1-5.81-.23c-7-1.25-14.47,2.67-18.64,6.93a28.43,28.43,0,0,0-8,16.44,26.92,26.92,0,0,0,0,6.59H-.56v63.61H612.05ZM63.27,272.55h0l.06,0Zm119-20.21a32,32,0,0,1,3.15,1l-1.91,1C183.11,253.65,182.69,253,182.28,252.34Zm1.69,2.77,2.16-1.54.21.08a17.84,17.84,0,0,0-2.26,1.65Zm83,1.11a23.92,23.92,0,0,0-3.52,5.16,2,2,0,0,1,.11-.26,59.35,59.35,0,0,1,3.78-6.1c.26-.31.73-.36,1.08-.52C268,255.05,267.53,255.61,267,256.22Zm-7.66,3.12a6.41,6.41,0,0,0-1.69-1.65l-.37-.13c-.08-.2-.17-.38-.25-.58l.13-.17c.85.93,1.85,2,2.59,2.76Zm207-109.16c4-.85,8.93-1.3,12.43-1.71a32,32,0,0,0-2,8.13c-3.68-2.18-7.42-4.16-10.93-5.82ZM485.46,137c.78-.89,2.16-2.87,3.09-3.9a44.56,44.56,0,0,1-2.72,4.68A4.55,4.55,0,0,0,485.46,137Zm8.09-11.27c-.22.26-.43.53-.64.79-2,1.23-3.74,2.52-4.12,3.19-.52.94-2.89,4.9-3.68,6.78a19.47,19.47,0,0,0-2.79-3C484,132.53,490,128.27,493.55,125.74Zm-21.88,18c1.92-2.16,4.33-6.15,6.45-7.32.36-.21.63-.38.88-.54a7.15,7.15,0,0,1,1,3.27c.35,4,0,0-1.41,3.35s-1.75.68-7.73,2.29l-.18,0C471,144.53,471.34,144.17,471.67,143.79Zm-210,108c2.11-1.18,1.81-1.57,4.12-2.88,1.61-.92,7.73-5.27,11.31-7.85l-.64.8c-2,1.22-3.74,2.51-4.12,3.18-.63,1.13-3.93,6.64-3.93,7.63,0,.84,2.33-2.73,3.69-4.23a37,37,0,0,1-3.32,5.51c-.1-.57-1.85-1.4-2.08-1s-.41.68-.67,1.11-.39.46-1.47,1c-.67.34-2.8,2.9-4.32,4.79l-.1-.06-.81-1.14-1.56-2.23-.2-.3C259,254.38,260.39,252.56,261.71,251.83Zm-72.46-11.3c1.21,1.19,2.84,2.18,3.42,3.78-1.41.4-2.77,2-1.62,1.86,1.37-.15.31,0,1.2.08a6.77,6.77,0,0,0-.56.52l-.48-.25a75.84,75.84,0,0,1-7.23-5.17l.1-.08-.14,0c-1.12-.88-2-1.59-2.21-1.82-.7-.7-.2-2.13-1.1-2.58a.48.48,0,0,0-.27,0l.71-.52a27.56,27.56,0,0,0,3.22-2.43A57.07,57.07,0,0,0,189.25,240.53Zm-10.45-2.37c-.65.84-1.11,1.82-.77,2.07l1.73,1.24a2.06,2.06,0,0,1,.6.62,12.39,12.39,0,0,1-5.05-.31A26.12,26.12,0,0,1,178.8,238.16Zm-3.9,4.18a21.44,21.44,0,0,1,4.32,1.28,2.15,2.15,0,0,0,1.64-.28c.06.2.14.43.23.68.34,1,3.37,4.14,6,6.75h0c-1.41-.31-4.3-1.08-7.3-1.92a50.84,50.84,0,0,0-5.38-5.7A9.21,9.21,0,0,1,174.9,242.34ZM59.23,264.44c1.05,0,1.63-.93,2-1.78a1.14,1.14,0,0,1,.15.16,33.27,33.27,0,0,0,2.86,3.87c.73.72,1.8,1.28,1.74,2.49h0a4.41,4.41,0,0,0-.58.5l-.23-.12a46,46,0,0,1-4.54-3.36c-.33-.34-.09-1-.52-1.24s-1.57,1.36-1.25,1.59l.83.59c.32.23.33.34.64,1.22a22.41,22.41,0,0,0,3.38,3.71l-.07.08-.46.25a39.47,39.47,0,0,0-9.37-7.81C55.53,264.37,57.88,264.47,59.23,264.44Z" transform="translate(0.56 -93.5)"/></svg>