<svg xmlns="http://www.w3.org/2000/svg" viewBox="0 0 434.56 141.63"><defs><style>.cls-1{fill:#06222b;}</style></defs><g id="Layer_2" data-name="Layer 2"><g id="Layer_1-2" data-name="Layer 1"><path class="cls-1" d="M434.51,56.46c.05-.72.06-1.44,0-2.15a22,22,0,0,0-.55-4.06A20,20,0,0,0,431.57,44a19.52,19.52,0,0,0-5.3-5.71,22.77,22.77,0,0,0-5.26-2.9,17,17,0,0,0-3.69-1.1A17,17,0,0,0,416,31.64,17.93,17.93,0,0,0,411.58,27a21.28,21.28,0,0,0-4.29-2.49,13.27,13.27,0,0,0-5.7-1.32,21,21,0,0,0-6.94,1.74A23,23,0,0,1,396,22.47c.45-.79-.73-1.74-1-2s-1.36-.13-1.36-.13a3.17,3.17,0,0,0-1.11.7c-.38.43.44,1.44.45,1s0,0,.11-.48.58-.61,1.32-.15,0,0,.41.63-.08.34-.49,1.39c-.16.41-.54,1.25-.94,2.12a16.66,16.66,0,0,0-2.11,1.39c-.08-.05-.16-.12-.25-.19a6.62,6.62,0,0,1,.61-1.25c.2-.29-.32-1.16-.57-1.57a4.36,4.36,0,0,1-.21,2.68,9.17,9.17,0,0,1-1.54-2,4.66,4.66,0,0,0-1.52-1.88c-.81-.6-1.41-1.12-2.14-1.58s-2.07-1.21-3-.71c0,0,2.23.52,2.92,1.51a34.62,34.62,0,0,0,2.66,3.48c.67.65,1.64,1.19,1.63,2.22h0a6.25,6.25,0,0,0-.5.4l-.2-.11A45.59,45.59,0,0,1,385,24.79c-.31-.31-.12-.89-.51-1.09s-1.33,1.08-1,1.3l.75.55c.29.22.31.31.6,1.08A22.88,22.88,0,0,0,387.93,30l-.06.06-.91.44-1.79.83c-1.89.88-2,.77-3.21,2.06a28.39,28.39,0,0,0-1.91,2.22c-.25.31-.53.62-.79.94a7.86,7.86,0,0,0-1.11-.83,28,28,0,0,0-2.56-1.51c-1.46-.85-3.18-1.91-3.87-1.7l1.63.87c.44,0,1.17.68,2,1.19s2.22,1.06,2.68,1.68a5.76,5.76,0,0,0,.82.86,6.75,6.75,0,0,0-.92,1.4h0c-.06,0,0,0,0,.08a1.11,1.11,0,0,0-.07.29,9.06,9.06,0,0,1-1.18-.65c-3.11-2-7.74-1.37-10.83.1a18.94,18.94,0,0,0-5,3.52,11.45,11.45,0,0,0-2.66-3.73,20.61,20.61,0,0,0-6.23-3.42,26.27,26.27,0,0,1,2.76-.82c.89-.26.74-1.72.75-2.11s-.88-1-.88-1a3.25,3.25,0,0,0-1.3-.25c-.59.06-.73,1.33-.38,1s0,0,.42-.27.86,0,1,.78,0,0-.16.72-.31.19-1.37.67c-.42.19-1.3.53-2.23.88a17.64,17.64,0,0,0-2.52-.43c0-.09,0-.18,0-.29a6.94,6.94,0,0,1,1.35-.49c.36-.07.62-1,.74-1.5a4.69,4.69,0,0,1-2.1,1.77,8.71,8.71,0,0,1,.34-2.44,4.42,4.42,0,0,0,.29-2.37c-.14-1-.19-1.74-.37-2.56s-.6-2.25-1.64-2.54c0,0,1.21,1.87,1,3a32.85,32.85,0,0,0-.65,4.26c0,.92.3,1.95-.46,2.69h0a4.51,4.51,0,0,0-.65,0l-.06-.22a40.38,40.38,0,0,1-.67-5c0-.43.57-.72.44-1.12s-1.75-.12-1.7.22l.13.9c.05.35,0,.43-.36,1.18a21.46,21.46,0,0,0-.23,4.49h-.09l-1-.3-1.89-.6c-2-.64-2-.79-3.79-.69a29.56,29.56,0,0,0-3,.31c-1.7.19-3.73.36-4.15.93l1.85-.26a7.79,7.79,0,0,1,2.31-.22,12.4,12.4,0,0,1,3.19-.24c.76.22.78,0,1.62.29.59.17,3,.58,4.44.82l-.33,0a5.08,5.08,0,0,0-1.7-.22,16,16,0,0,0-2.69.93c-.19.2,1.18-.11,1.84-.15a10.25,10.25,0,0,1-3,.66c-3.75.22-7,3.46-8.48,6.45a16.71,16.71,0,0,0-1.12,2.85,14.28,14.28,0,0,0-3.16-1.72,9.8,9.8,0,0,0-4.51-.82c.2-.23.36-.44.45-.55.26-.3-.05-1.31-.05-1.31a3.12,3.12,0,0,0-.87-1c-.5-.3-1.43.62-.94.56s0,0,.51,0,.7.47.32,1.23,0,0-.59.48-.36,0-1.5-.28c-.4-.09-1.17-.29-2-.52a6.51,6.51,0,0,0-.58-.62.49.49,0,0,0-.3-.1c-.36-.4-.74-.8-1.16-1.19a2.43,2.43,0,0,1,.15-.26,6.67,6.67,0,0,1,1.38.41c.33.15,1.16-.46,1.55-.75a5,5,0,0,1-2.8.16,8.83,8.83,0,0,1,1.84-1.72,4.81,4.81,0,0,0,1.74-1.7c.51-.85,1-1.49,1.35-2.25s1-2.12.34-3c0,0-.25,2.18-1.18,3a34.69,34.69,0,0,0-3.24,3c-.59.72-1,1.71-2.09,1.84h0a4.91,4.91,0,0,0-.48-.41,2.2,2.2,0,0,1,.09-.21,40.24,40.24,0,0,1,2.68-4.34c.28-.33.9-.23,1.06-.62s-1.3-1.13-1.48-.82-.3.48-.48.79-.27.33-1,.71a23.89,23.89,0,0,0-3.07,3.41l-.07,0-.57-.82-1.1-1.58c-1.17-1.67-1.06-1.77-2.56-2.77a29.37,29.37,0,0,0-2.56-1.51c-1.46-.85-3.18-1.91-3.87-1.7l1.63.87c.44,0,1.17.68,2,1.19s2.22,1.06,2.68,1.68.58.51,1.09,1.19c.35.47,2,2.23,3,3.25l-.29-.16a4.71,4.71,0,0,0-1.2-1.17,15.84,15.84,0,0,0-2.71-.85c-.29.05,1,.61,1.54,1a10,10,0,0,1-2.79-1.25c-3.11-2-7.74-1.37-10.83.1a19,19,0,0,0-5.82,4.34,19.72,19.72,0,0,0-2.66-6.05,25,25,0,0,1,2.7,1c.87.32,1.69-.92,1.95-1.23s0-1.31,0-1.31a3.06,3.06,0,0,0-.88-1c-.5-.3-1.43.62-.94.56s0,0,.51,0,.71.47.33,1.23,0,0-.6.48-.36,0-1.5-.28c-.45-.1-1.37-.35-2.33-.61a16,16,0,0,0-1.71-1.82,1.53,1.53,0,0,1,.16-.26,6.74,6.74,0,0,1,1.37.41c.33.15,1.16-.46,1.55-.75a5,5,0,0,1-2.79.16,8.54,8.54,0,0,1,1.83-1.72,4.76,4.76,0,0,0,1.75-1.7c.51-.85,1-1.49,1.34-2.25s1-2.12.34-3c0,0-.25,2.18-1.18,3a34.69,34.69,0,0,0-3.24,3c-.59.72-1,1.71-2.09,1.84h0a4,4,0,0,0-.48-.41,2.2,2.2,0,0,1,.09-.21A41.9,41.9,0,0,1,283,22.46c.28-.33.9-.23,1.06-.62s-1.3-1.13-1.48-.82l-.48.79c-.18.3-.27.33-1,.71A23.38,23.38,0,0,0,278,25.93l-.08,0c-.15-.22-.34-.5-.57-.82l-1.1-1.58c-1.16-1.67-1.06-1.77-2.56-2.77a29.25,29.25,0,0,0-2.55-1.51c-1.47-.85-3.19-1.91-3.88-1.7l1.63.87c.45,0,1.17.68,2,1.19s2.22,1.06,2.68,1.68.58.51,1.09,1.19c.36.47,2,2.23,3,3.25l-.29-.16a4.71,4.71,0,0,0-1.2-1.17,15.57,15.57,0,0,0-2.71-.85c-.29,0,1,.61,1.54,1a10,10,0,0,1-2.79-1.25c-3.1-2-7.74-1.37-10.83.1a18.78,18.78,0,0,0-8,7.25,18.42,18.42,0,0,0-1.25,2.57c-.32-.15-.64-.3-1-.42a9.8,9.8,0,0,0-4.54-.82,17.88,17.88,0,0,0-5.65,1.77,21.2,21.2,0,0,1,1.17-2.08c.39-.67-.52-1.4-.74-1.62s-1.1,0-1.1,0a2.83,2.83,0,0,0-.91.63c-.32.38.31,1.17.33.78s0,0,.11-.4.48-.53,1.06-.18,0,0,.31.49-.07.29-.44,1.18c-.14.35-.47,1.06-.82,1.8a16.06,16.06,0,0,0-1.75,1.24,1.62,1.62,0,0,1-.19-.13,5.56,5.56,0,0,1,.53-1.07c.17-.25-.22-.94-.41-1.27a3.78,3.78,0,0,1-.25,2.22,6.13,6.13,0,0,1-1.17-1.56,3.37,3.37,0,0,0-1.17-1.48c-.64-.46-1.1-.86-1.68-1.21s-1.62-.9-2.4-.44c0,0,1.77.33,2.3,1.11a23.39,23.39,0,0,0,2,2.75c.52.51,1.28.91,1.24,1.76h0a3.41,3.41,0,0,0-.41.36l-.16-.09a29.38,29.38,0,0,1-3.22-2.38c-.24-.24-.07-.73-.38-.88s-1.11,1-.88,1.13l.59.42c.22.16.24.24.45.87a15.85,15.85,0,0,0,2.4,2.63l0,.06-.75.4-1.47.77a7.94,7.94,0,0,0-2,1.23,19.9,19.9,0,0,0-2.69-1.26,15.3,15.3,0,0,0-7.1-1.28,27.64,27.64,0,0,0-8.83,2.77,32.21,32.21,0,0,1,1.84-3.25c.6-1-.83-2.19-1.17-2.54s-1.71-.07-1.71-.07A4.67,4.67,0,0,0,210,36c-.5.59.48,1.83.52,1.22s0,0,.16-.63.76-.82,1.66-.28,0,0,.5.78-.13.44-.69,1.83c-.23.55-.75,1.67-1.3,2.82a22.5,22.5,0,0,0-2.72,1.95c-.1-.06-.2-.14-.31-.22a9.36,9.36,0,0,1,.83-1.66c.27-.4-.34-1.48-.63-2a6,6,0,0,1-.4,3.47,9.86,9.86,0,0,1-1.84-2.43,5.21,5.21,0,0,0-1.82-2.33c-1-.71-1.72-1.34-2.62-1.88s-2.54-1.41-3.77-.7c0,0,2.78.52,3.6,1.74A48,48,0,0,0,204,41.67a2,2,0,0,1-.42.71c-.26.24-.62.57-1,.92l-1.11-.86.11-.16c.18-.23.58-.16.69-.44s-.85-.8-1-.59l-.31.57a1,1,0,0,1-.11.15,7.27,7.27,0,0,1-.59-.49c-.37-.37-.1-1.13-.58-1.37s-1.73,1.5-1.38,1.76l.92.66a1.05,1.05,0,0,1,.4.5c-.41.5-.91,1.17-1.32,1.73l-.05,0-.36-.58L197.2,43c-.65-1-.69-1.23-1.31-1.72.2-.35-.07-1.25-.07-1.25a3.12,3.12,0,0,0-.87-1c-.5-.3-1.44.62-.95.56s0,0,.51,0,.62.37.44.93c-.32-.22-.39-.23-1.06-.66-.94-.6-2-1.36-2.5-1.21l1.05.63c.29,0,.76.48,1.27.84.31.21.75.45,1.13.69h0c-.38.76,0,0-.59.48s-.36,0-1.51-.28c-.45-.1-1.37-.35-2.32-.61a17.1,17.1,0,0,0-1.72-1.82,2.63,2.63,0,0,1,.16-.26,6.74,6.74,0,0,1,1.37.41c.33.15,1.16-.46,1.55-.75a5,5,0,0,1-2.79.16,8.54,8.54,0,0,1,1.83-1.72,4.76,4.76,0,0,0,1.75-1.7c.51-.85,1-1.49,1.35-2.25s1-2.12.33-3c0,0-.24,2.18-1.17,3a33.67,33.67,0,0,0-3.25,3c-.58.72-1,1.71-2.09,1.84h0a4,4,0,0,0-.48-.41l.09-.21A41.77,41.77,0,0,1,190,32.46c.27-.33.89-.23,1.06-.62s-1.31-1.13-1.49-.82l-.47.79c-.19.3-.28.33-1,.71A23.29,23.29,0,0,0,185,35.93l-.07,0c-.16-.22-.35-.5-.57-.82l-1.11-1.58c-1.16-1.67-1.05-1.77-2.55-2.77a29.37,29.37,0,0,0-2.56-1.51c-1.46-.85-3.18-1.91-3.87-1.7l1.62.87c.45,0,1.17.68,2,1.19s2.22,1.06,2.68,1.68.58.51,1.09,1.19c.36.47,2,2.23,3,3.25l-.29-.16a4.72,4.72,0,0,0-1.19-1.17,15.94,15.94,0,0,0-2.72-.85c-.29.05,1,.61,1.55,1a10,10,0,0,1-2.79-1.25c-3.11-2-7.75-1.37-10.84.1a18.7,18.7,0,0,0-8,7.25,19.68,19.68,0,0,0-1.26,2.57,10.32,10.32,0,0,0-1-.42,9.78,9.78,0,0,0-4.54-.82,16.89,16.89,0,0,0-5.1,1.52c-.06-.16-.13-.31-.19-.46.29-.51.62-1,.82-1.37.38-.67-.53-1.4-.75-1.62s-1.09,0-1.09,0a3.09,3.09,0,0,0-.37.19,16.72,16.72,0,0,0-1.36-1.92A16.91,16.91,0,0,0,141,34.38a17.94,17.94,0,0,0-6.72-2.28h0a16.41,16.41,0,0,0,.88-4.7,17.19,17.19,0,0,0-.18-3.2A16.46,16.46,0,0,0,133.47,19a17.19,17.19,0,0,0-3.81-5.12,21.06,21.06,0,0,0-4-2.94A13,13,0,0,0,120.2,9a21.16,21.16,0,0,0-7.11,1,23.63,23.63,0,0,1,1.64-2.27c.54-.73-.52-1.8-.76-2.11s-1.34-.28-1.34-.28a3.17,3.17,0,0,0-1.18.57c-.43.39.27,1.48.33,1s0,0,.17-.47.65-.54,1.32,0,0,0,.34.67-.12.32-.65,1.33c-.21.39-.69,1.18-1.19,2a18,18,0,0,0-2.27,1.15l-.22-.21a6.6,6.6,0,0,1,.75-1.18c.24-.27-.18-1.18-.38-1.62a4.36,4.36,0,0,1-.52,2.64,9,9,0,0,1-1.29-2.13,4.62,4.62,0,0,0-1.3-2c-.73-.68-1.26-1.26-1.94-1.8s-1.91-1.43-2.91-1c0,0,2.15.76,2.72,1.82a33,33,0,0,0,2.22,3.74c.59.73,1.49,1.37,1.36,2.39h0a4.51,4.51,0,0,0-.54.35l-.19-.14a43.14,43.14,0,0,1-3.73-3.55c-.27-.34,0-.89-.38-1.14s-1.45.94-1.19,1.18l.68.63c.26.25.27.34.47,1.14a22.44,22.44,0,0,0,2.7,3.69l-.06.06-1,.32-1.87.64c-2,.67-2.06.54-3.43,1.69a28.49,28.49,0,0,0-2.16,2c-.55.51-1.13,1.06-1.63,1.57a4.91,4.91,0,0,0-.58-.63c-.22-.22-1.1,0-1.1,0a2.83,2.83,0,0,0-.91.63c-.32.38.31,1.17.33.78s0,0,.11-.4.48-.53,1.06-.18,0,0,.31.49l.09.16a1.75,1.75,0,0,0-.32.62,2.43,2.43,0,0,0-.21.4c-.14.35-.47,1.06-.82,1.8a16.06,16.06,0,0,0-1.75,1.24,1.07,1.07,0,0,1-.19-.13,5.56,5.56,0,0,1,.53-1.07c.17-.25-.22-.94-.41-1.27a3.78,3.78,0,0,1-.25,2.22,6.41,6.41,0,0,1-1.18-1.56,3.28,3.28,0,0,0-1.16-1.48c-.64-.46-1.1-.86-1.68-1.21s-1.62-.9-2.4-.44c0,0,1.77.33,2.29,1.11a24.58,24.58,0,0,0,2,2.75c.52.51,1.28.91,1.24,1.76h0a3.41,3.41,0,0,0-.41.36l-.16-.09a29.38,29.38,0,0,1-3.22-2.38c-.24-.24-.07-.73-.38-.88s-1.11,1-.88,1.13l.59.42c.22.16.23.24.45.87a15.85,15.85,0,0,0,2.4,2.63l0,.06-.75.4-1.47.77-.47.25c-1.05-1.53-1-1.67-2.46-2.63a29.25,29.25,0,0,0-2.55-1.51c-1.47-.85-3.19-1.91-3.88-1.7l1.63.87c.45,0,1.17.68,2,1.19S83.29,27,83.75,27.6s.58.51,1.09,1.19c.15.2.55.65,1,1.17a6.44,6.44,0,0,0-.62.36,7,7,0,0,0-1.63-.46c-.24,0,.62.44,1.23.78l-.07.06a9.08,9.08,0,0,1-2.41-1.12c-3.1-2-7.74-1.37-10.83.1a18.7,18.7,0,0,0-8,7.25,17.44,17.44,0,0,0-1.26,2.57l-1-.42a9.8,9.8,0,0,0-4.54-.82A18,18,0,0,0,51.14,40,21.2,21.2,0,0,1,52.31,38c.39-.67-.52-1.4-.74-1.62s-1.09,0-1.09,0a2.94,2.94,0,0,0-.92.63c-.32.38.31,1.17.33.78s0,0,.11-.4.48-.53,1.06-.18,0,0,.31.49-.07.29-.44,1.18c-.14.35-.47,1.06-.82,1.8a17.09,17.09,0,0,0-1.75,1.24,1.62,1.62,0,0,1-.19-.13,5.56,5.56,0,0,1,.53-1.07c.17-.25-.22-.94-.41-1.27A3.78,3.78,0,0,1,48,41.58,6.13,6.13,0,0,1,46.87,40a3.37,3.37,0,0,0-1.17-1.48c-.64-.46-1.1-.86-1.67-1.21h0c0-.17.08-.32.11-.41.15-.45-.8-1.45-.8-1.45a4.58,4.58,0,0,0-1.61-.69c-.78-.12-1.41,1.32-.84,1s0,0,.65-.19,1.08.19,1.09,1.11a1.45,1.45,0,0,0-1,.15,6.45,6.45,0,0,1,1,.27c0,.5,0-.19-.44.5s-.46.13-2,.36c-.61.09-1.88.22-3.2.35a24.05,24.05,0,0,0-3.13-1.28,2.58,2.58,0,0,1,0-.36,9.74,9.74,0,0,1,1.91-.15c.5,0,1.16-1,1.48-1.53a6.68,6.68,0,0,1-3.34,1.42,9.78,9.78,0,0,1,1.28-2.74,5.21,5.21,0,0,0,1.18-2.68c.14-1.18.34-2.1.38-3.12s0-2.81-1.26-3.46c0,0,.93,2.55.23,3.85a38.26,38.26,0,0,0-2.28,4.78c-.31,1.08-.28,2.37-1.52,3h0a8,8,0,0,0-.82-.25,2.72,2.72,0,0,1,0-.28,44.56,44.56,0,0,1,.83-6c.15-.49,1-.66,1-1.17s-2.23-.68-2.28-.26-.09.67-.14,1.09-.15.5-.87,1.27c-.45.48-1.27,3.19-1.83,5.17h-.12L26.49,35l-2.25-1.28c-2.37-1.36-2.3-1.53-4.7-2s-1.72-.26-4-.56-5-.73-5.71-.19l2.49.26a11.32,11.32,0,0,1,3.07.45c1.25.22,3.32.21,4.24.71s1,.3,2,.84c.7.37,3.71,1.61,5.48,2.32l-.44-.05a7.13,7.13,0,0,0-2.13-.78,24.14,24.14,0,0,0-3.81.25c-.32.18,1.56.24,2.44.4a15.33,15.33,0,0,1-4.12-.16c-5-.89-10.27,1.89-13.22,4.92A20.19,20.19,0,0,0,.15,51.78a19.29,19.29,0,0,0,0,4.68H0v85.17H434.56V56.46ZM45.28,44.91h0l0,0ZM87,31.22l0-.06.1.11,0,.06Zm.3-.25,0-.08.28-.34ZM202.13,46.45a2.57,2.57,0,0,1-1.24,0,6.41,6.41,0,0,1,.56-.67Zm-.43.38c.12.07.36-.06.59-.22L203.7,48l-.07.08-.56.3c-.32-.09-.78-.22-1.25-.37a12,12,0,0,0-1.11-1.3,1.12,1.12,0,0,1,.1-.18A3.85,3.85,0,0,1,201.7,46.83Zm.77,2.25.21-.15.12,0-.29.18Zm30.28-7.35c.15-.08.65-.83,1-1.18a13.08,13.08,0,0,1-.77,1.31Zm147.64-5.8c.62-.68,1.4-2,2.1-2.32s.6-.48,1.37-.87c.54-.28,2.58-1.61,3.77-2.39l-.21.25a4.69,4.69,0,0,0-1.37,1A14.55,14.55,0,0,0,384.81,34c0,.28.76-.86,1.21-1.34a9.35,9.35,0,0,1-1.67,2.48,8.46,8.46,0,0,0-2.06,5.57l-.48-.68-1.1-1.58c-.61-.87-.87-1.32-1.2-1.69C379.78,36.54,380.1,36.24,380.39,35.93Zm-1.49,1.7a.85.85,0,0,1,.12-.26l.06.07c.35.47,2,2.23,3,3.25l-.29-.16a4.71,4.71,0,0,0-1.2-1.17c-.33-.12-1.73-.65-2.4-.81ZM378,38.72c.34.21,1,.52,1.36.76-.51-.17-1-.33-1.52-.56Zm-60.49,3.61c-.45.13-.9.27-1.35.44-.23-.41-.46-.8-.69-1.15A14.93,14.93,0,0,1,317.55,42.33ZM232,40.68c.44-.25,2.12-1.45,3.1-2.16l-.17.22a4.55,4.55,0,0,0-1.13.87,13.45,13.45,0,0,0-1.08,2.09L231.54,41A3,3,0,0,1,232,40.68Zm-27.91,1.69c0-.11.11-.25.16-.39a.12.12,0,0,1,0,.05c.81.79,2,1.42,1.93,2.76h0a7.83,7.83,0,0,0-.64.55l-.25-.13a21.74,21.74,0,0,1-2-1.38C203.58,43.3,203.85,42.87,204.08,42.37ZM201,45.21a1.3,1.3,0,0,1-.87.61h0c-.1-.1-.19-.2-.31-.3l.06-.15a9,9,0,0,1,.47-.93C200.48,44.66,200.7,44.92,201,45.21Zm-5.34-3.55a4.15,4.15,0,0,1,.53.61c.23.33,1.29,1.59,1.92,2.32l-.18-.12a3.16,3.16,0,0,0-.78-.83,9.63,9.63,0,0,0-1.75-.61c-.19,0,.64.44,1,.69a6.22,6.22,0,0,1-1.81-.89,2.27,2.27,0,0,0-.34-.19C194.78,42.63,195.3,42.06,195.62,41.66Zm-3.19.35a5.88,5.88,0,0,0-1-.07l-.19-.32A11.39,11.39,0,0,1,192.43,42Zm-44.56-1.24c.58.34,0,0,.32.49s0,.35-.24.79c-.22-.5-.48-1-.75-1.47A1,1,0,0,1,147.87,40.77ZM95.93,20.93c.14-.41,1-.92,1.68-1.53s1.62-1.8,2.37-2.07.65-.42,1.46-.73c.57-.21,2.75-1.31,4-2l-.24.23a4.63,4.63,0,0,0-1.47.82A14.4,14.4,0,0,0,102.23,18c0,.28.86-.77,1.36-1.19a9.76,9.76,0,0,1-2,2.28,7.52,7.52,0,0,0-2,2.91,20.08,20.08,0,0,0-4.93,1.68,21.2,21.2,0,0,1,1.17-2.08.74.74,0,0,0,0-.63Zm-7.08,7.59-.17.22a4.36,4.36,0,0,0-1.13.87c-.09.15-.33.56-.56,1l-.35-.5C87.33,29.61,88.23,29,88.85,28.52Zm-2.61,1.84.55.59,0,.08a1.54,1.54,0,0,0-.42-.32l-.4-.15ZM42.41,39.15c.75,0,1.16-.66,1.4-1.27l.11.12a23.39,23.39,0,0,0,2,2.75c.52.51,1.28.91,1.24,1.76h0a3.41,3.41,0,0,0-.41.36l-.16-.09a29.38,29.38,0,0,1-3.22-2.38c-.24-.24-.07-.73-.37-.88s-1.11,1-.89,1.13l.59.42c.23.16.24.24.45.87a15.85,15.85,0,0,0,2.4,2.63l0,.06-.33.17a28,28,0,0,0-6.64-5.54A37.65,37.65,0,0,1,42.41,39.15Z"/><path class="cls-1" d="M37.26,35.05a.65.65,0,0,0,.16-.21C37.46,34.72,37.39,34.83,37.26,35.05Z"/><path class="cls-1" d="M208,39.86a.6.6,0,0,0-.11-.24C207.77,39.52,207.84,39.64,208,39.86Z"/><path class="cls-1" d="M48.29,39.36a.57.57,0,0,0-.06-.15C48.17,39.15,48.21,39.22,48.29,39.36Z"/><path class="cls-1" d="M162.57,14.12l.1-.07C162.7,14,162.65,14,162.57,14.12Z"/><path class="cls-1" d="M145.19,25.77a9.65,9.65,0,0,0,2.42,2.34,11.5,11.5,0,0,0,3.16,1.48,12.78,12.78,0,0,0,7.53-.14,12.09,12.09,0,0,0,1.77-.76,9.88,9.88,0,0,0,2.57-1.77,8.69,8.69,0,0,0,2.62-5.15,5.13,5.13,0,0,0-.28-2.86,10.22,10.22,0,0,0-2.34-3,16.2,16.2,0,0,1,1.7.26c.55.09.89-.61,1-.78s-.18-.66-.18-.66a2,2,0,0,0-.62-.41c-.33-.11-.77.43-.49.37s0,0,.3,0,.47.18.34.59,0,0-.3.29-.21,0-.92,0c-.27,0-.85-.06-1.44-.11a9.46,9.46,0,0,0-1.22-.77l.07-.14a5.13,5.13,0,0,1,.85.09c.22,0,.63-.33.83-.51a3.46,3.46,0,0,1-1.63.32,4.76,4.76,0,0,1,.88-1,2.35,2.35,0,0,0,.84-1c.2-.47.4-.83.53-1.24s.33-1.16-.14-1.52c0,0,.11,1.12-.35,1.59A19.48,19.48,0,0,0,161.13,13c-.26.42-.4,1-1,1.11h0a2,2,0,0,0-.33-.17l0-.12a19.57,19.57,0,0,1,1.08-2.4c.13-.19.51-.2.56-.41s-.9-.45-1-.28-.12.27-.19.43-.13.19-.53.45a10.82,10.82,0,0,0-1.42,2l-.05,0-.43-.36-.83-.7a4.33,4.33,0,0,0-1.82-1.18c-1-.37-.73-.24-1.69-.54a6.3,6.3,0,0,0-2.47-.53l1.06.31a5.14,5.14,0,0,1,1.29.42,8.11,8.11,0,0,1,1.77.63c.34.27.4.2.78.5s1.44.95,2.13,1.38l-.19-.06a2.84,2.84,0,0,0-.84-.48,10.46,10.46,0,0,0-1.7-.2c-.16.05.66.22,1,.36a7.31,7.31,0,0,1-1.78-.39,8,8,0,0,0-6.37,1,9.61,9.61,0,0,0-3.88,4.33,7.65,7.65,0,0,0-.62,3.84A8,8,0,0,0,145.19,25.77Z"/><path class="cls-1" d="M316.09,38.09a.82.82,0,0,0,.18-.11C316.34,37.9,316.26,38,316.09,38.09Z"/><path class="cls-1" d="M350.05,31.58a.59.59,0,0,0,.08-.2C350.13,31.28,350.1,31.38,350.05,31.58Z"/><path class="cls-1" d="M238.07,33a.35.35,0,0,0-.07-.15C238,32.8,238,32.87,238.07,33Z"/><path class="cls-1" d="M284.75,28.09a.63.63,0,0,0,.18-.11C285,27.9,284.92,28,284.75,28.09Z"/><path class="cls-1" d="M191.78,38.09A.73.73,0,0,0,192,38C192,37.9,192,38,191.78,38.09Z"/><path class="cls-1" d="M91.83,23a.35.35,0,0,0-.07-.15C91.71,22.8,91.75,22.87,91.83,23Z"/><path class="cls-1" d="M109.65,8.59a.43.43,0,0,0-.06-.2C109.52,8.31,109.57,8.4,109.65,8.59Z"/><path class="cls-1" d="M321.78,11.06a.19.19,0,0,0,0-.09S321.74,11,321.78,11.06Z"/><path class="cls-1" d="M317,16.61a5.91,5.91,0,0,1,.93-1.07c.31-.17.27-.23.6-.42s1.13-.77,1.65-1.14l-.09.11a2.17,2.17,0,0,0-.6.47,6.88,6.88,0,0,0-.57,1.11c0,.12.34-.4.53-.62a4.75,4.75,0,0,1-.75,1.13,4.9,4.9,0,0,0-.75,4.55,7,7,0,0,0,2.6,3.58,7.25,7.25,0,0,0,3,1.27,8.44,8.44,0,0,0,8-3.1,7.25,7.25,0,0,0,.5-.73,8.46,8.46,0,0,0,1.1.74,9.57,9.57,0,0,0,3.59,1.12,9.68,9.68,0,0,0,3-.16,10,10,0,0,0,1.7-.5A9.6,9.6,0,0,0,344,21.52,9.32,9.32,0,0,0,346.28,19a10.6,10.6,0,0,0,1.07-2.33,6.31,6.31,0,0,0,.32-3,10.07,10.07,0,0,0-1.45-3.37,12.26,12.26,0,0,1,1.43.51c.47.17.9-.49,1-.65s0-.69,0-.69A1.53,1.53,0,0,0,348.2,9c-.26-.16-.76.32-.5.3s0,0,.27,0,.38.24.17.65,0,0-.31.25-.19,0-.8-.15c-.24-.05-.72-.18-1.23-.32a9.05,9.05,0,0,0-.91-1l.08-.13a3.7,3.7,0,0,1,.73.21c.18.09.62-.24.82-.39a2.68,2.68,0,0,1-1.48.08,5.29,5.29,0,0,1,1-.91,2.56,2.56,0,0,0,.92-.9c.27-.45.51-.79.72-1.19s.51-1.13.17-1.57a3,3,0,0,1-.62,1.57,18.24,18.24,0,0,0-1.72,1.59c-.31.38-.54.9-1.11,1h0a2.8,2.8,0,0,0-.25-.22l.05-.11a23,23,0,0,1,1.42-2.3c.14-.17.48-.12.56-.33s-.69-.59-.79-.43l-.25.42c-.09.16-.14.17-.55.38a12.47,12.47,0,0,0-1.63,1.8l0,0-.31-.43L342,6c-.62-.89-.56-.94-1.36-1.47a14,14,0,0,0-1.35-.8c-.78-.45-1.69-1-2.06-.9l.87.46c.23,0,.62.36,1,.63a6.64,6.64,0,0,1,1.42.89c.24.33.31.27.58.63s1.06,1.18,1.57,1.73l-.15-.09a2.64,2.64,0,0,0-.63-.62A9.09,9.09,0,0,0,340.51,6c-.16,0,.52.32.82.51a5.08,5.08,0,0,1-1.48-.66c-1.65-1.07-4.11-.73-5.75.06a9.89,9.89,0,0,0-4.23,3.84,9.11,9.11,0,0,0-.67,1.37c-.17-.08-.34-.17-.51-.23a5.15,5.15,0,0,0-2.41-.44,9.51,9.51,0,0,0-3,.94c.16-.37.47-.83.62-1.1s-.28-.74-.39-.86-.58,0-.58,0a1.49,1.49,0,0,0-.49.33c-.17.2.17.62.18.42s0,0,.05-.22.26-.28.57-.09,0,0,.16.26,0,.15-.23.62c-.07.19-.25.57-.44,1a6.82,6.82,0,0,0-.92.66.39.39,0,0,1-.1-.08,2.63,2.63,0,0,1,.28-.56c.09-.13-.12-.5-.22-.67a2.06,2.06,0,0,1-.13,1.17,3.58,3.58,0,0,1-.63-.82,1.68,1.68,0,0,0-.62-.79c-.33-.24-.58-.45-.88-.64s-.86-.48-1.28-.24c0,0,.94.18,1.22.6a14.4,14.4,0,0,0,1.07,1.45c.28.27.68.48.66.94-.07.06-.15.11-.22.18l-.08,0a17,17,0,0,1-1.71-1.26c-.13-.13,0-.39-.2-.47s-.59.51-.47.6l.32.22c.12.09.12.13.23.46a8.94,8.94,0,0,0,1.28,1.4l0,0-.4.21-.77.41a3.49,3.49,0,0,0-1.41,1c-.54.6-.37.44-.85,1s-1.07,1.27-1,1.57l.5-.66C316.4,17.21,316.74,16.92,317,16.61Z"/><path class="cls-1" d="M346.52,8.45a.21.21,0,0,0,.1-.06C346.66,8.34,346.61,8.38,346.52,8.45Z"/><path class="cls-1" d="M303.65,1.29a.16.16,0,0,0,0-.06S303.62,1.23,303.65,1.29Z"/><path class="cls-1" d="M300,5.6a4.3,4.3,0,0,1,.72-.83c.24-.14.21-.18.47-.33s.87-.59,1.28-.88l-.08.09a1.53,1.53,0,0,0-.46.36,5.48,5.48,0,0,0-.45.86c0,.09.27-.31.42-.48a3.53,3.53,0,0,1-.58.87,3.79,3.79,0,0,0-.58,3.53,5.41,5.41,0,0,0,2,2.78,5.72,5.72,0,0,0,2.32,1,6.2,6.2,0,0,0,2.74-.11,6.52,6.52,0,0,0,1.94-.88,6.38,6.38,0,0,0,1.53-1.41A6.28,6.28,0,0,0,312.34,8a5.81,5.81,0,0,0,.23-1.84,6.41,6.41,0,0,0-.15-1.07,5,5,0,0,0-.64-1.65,5.06,5.06,0,0,0-1.39-1.5A6,6,0,0,0,309,1.18a3.92,3.92,0,0,0-1.87-.34,7.17,7.17,0,0,0-2.32.73c.13-.29.36-.65.48-.86s-.21-.57-.3-.66-.45,0-.45,0a1.2,1.2,0,0,0-.38.26c-.13.15.13.48.14.32s0,0,0-.17.2-.21.44-.07,0,0,.13.2,0,.12-.18.49l-.34.74a6.36,6.36,0,0,0-.72.51l-.08-.06a3,3,0,0,1,.22-.44c.07-.1-.09-.38-.17-.52a1.57,1.57,0,0,1-.1.91,2.37,2.37,0,0,1-.49-.64,1.38,1.38,0,0,0-.48-.61c-.26-.18-.45-.35-.68-.49s-.67-.37-1-.19c0,0,.73.14.94.46a11.47,11.47,0,0,0,.83,1.13c.22.21.53.37.51.73h0l-.17.14-.06,0a13.23,13.23,0,0,1-1.33-1c-.09-.1,0-.3-.15-.36s-.45.39-.36.46l.24.17c.09.07.1.1.18.36a6.75,6.75,0,0,0,1,1.08l0,0-.31.16-.6.32a2.63,2.63,0,0,0-1.09.76c-.42.46-.29.34-.66.79s-.83,1-.8,1.22l.39-.51C299.48,6.06,299.74,5.84,300,5.6Z"/><path class="cls-1" d="M391.07,23.88a.85.85,0,0,0-.09-.19C390.9,23.61,391,23.71,391.07,23.88Z"/></g></g></svg>