<svg xmlns="http://www.w3.org/2000/svg" viewBox="0 0 434.56 163.73"><defs><style>.cls-1{fill:#fff;}.cls-2{fill:#06222b;}</style></defs><g id="Layer_2" data-name="Layer 2"><g id="Layer_1-2" data-name="Layer 1"><rect class="cls-1" x="0.31" width="433.91" height="154.07"/><path class="cls-2" d="M434.51,78.56c.05-.72.06-1.44,0-2.15a21.93,21.93,0,0,0-.55-4,19.91,19.91,0,0,0-2.43-6.3,19.52,19.52,0,0,0-5.3-5.71,23.15,23.15,0,0,0-5.26-2.9,17.54,17.54,0,0,0-3.69-1.1,16.45,16.45,0,0,0-1.35-2.6,17.63,17.63,0,0,0-4.39-4.67,20.38,20.38,0,0,0-4.29-2.49,13.14,13.14,0,0,0-5.7-1.33A21.28,21.28,0,0,0,394.65,47,23,23,0,0,1,396,44.57c.45-.79-.73-1.73-1-2s-1.36-.13-1.36-.13a3.17,3.17,0,0,0-1.11.7c-.38.43.44,1.44.45,1s0,0,.11-.48.58-.61,1.32-.14,0,0,.41.62-.08.34-.49,1.39c-.16.42-.54,1.26-.94,2.13A15.54,15.54,0,0,0,391.28,49l-.25-.18a6.32,6.32,0,0,1,.61-1.25c.2-.3-.32-1.16-.57-1.57a4.33,4.33,0,0,1-.21,2.67,9.11,9.11,0,0,1-1.54-2,4.69,4.69,0,0,0-1.52-1.89c-.81-.59-1.41-1.11-2.14-1.58s-2.07-1.2-3-.71c0,0,2.23.53,2.92,1.51a34.62,34.62,0,0,0,2.66,3.48c.67.65,1.64,1.19,1.63,2.23h0a3.65,3.65,0,0,0-.5.4l-.2-.12A43.8,43.8,0,0,1,385,46.89c-.31-.31-.12-.88-.51-1.09s-1.33,1.09-1,1.3l.75.56c.29.21.31.3.6,1.08a23.47,23.47,0,0,0,3.12,3.36l-.06.07-.91.43-1.79.84c-1.89.87-2,.76-3.21,2.05a28.39,28.39,0,0,0-1.91,2.22c-.25.31-.53.63-.79.94a8.73,8.73,0,0,0-1.11-.83,28,28,0,0,0-2.56-1.51c-1.46-.85-3.18-1.91-3.87-1.7l1.63.88c.44,0,1.17.68,2,1.18s2.22,1.06,2.68,1.69a6.15,6.15,0,0,0,.82.85,6.52,6.52,0,0,0-.92,1.41h0c-.06,0,0,0,0,.09a1,1,0,0,0-.07.28,8,8,0,0,1-1.18-.65c-3.11-2-7.74-1.37-10.83.11a18.72,18.72,0,0,0-5,3.52,11.49,11.49,0,0,0-2.66-3.74,20.38,20.38,0,0,0-6.23-3.41,24.27,24.27,0,0,1,2.76-.83c.89-.26.74-1.72.75-2.11s-.88-1-.88-1a3.13,3.13,0,0,0-1.3-.24c-.59.05-.73,1.32-.38,1s0,0,.42-.27.86,0,1,.78,0,0-.16.73-.31.18-1.37.66c-.42.19-1.3.54-2.23.89A17.64,17.64,0,0,0,348,56c0-.09,0-.19,0-.3a6.2,6.2,0,0,1,1.35-.48c.36-.08.62-1,.74-1.51a4.63,4.63,0,0,1-2.1,1.77,8.64,8.64,0,0,1,.34-2.43,4.42,4.42,0,0,0,.29-2.37c-.14-1-.19-1.74-.37-2.57s-.6-2.25-1.64-2.53c0,0,1.21,1.87,1,3a32.59,32.59,0,0,0-.65,4.26c0,.92.3,1.95-.46,2.68h0a4.51,4.51,0,0,0-.65-.05l-.06-.21a40.76,40.76,0,0,1-.67-5c0-.43.57-.71.44-1.12s-1.75-.12-1.7.23l.13.9c.05.34,0,.42-.36,1.18a21.41,21.41,0,0,0-.23,4.49h-.09l-1-.31-1.89-.6c-2-.64-2-.78-3.79-.69s-1.29.13-3,.31-3.73.37-4.15.94l1.85-.27a7.79,7.79,0,0,1,2.31-.22,12.86,12.86,0,0,1,3.19-.24c.76.23.78.06,1.62.3.59.16,3,.58,4.44.81l-.33,0a4.75,4.75,0,0,0-1.7-.21,16,16,0,0,0-2.69.92c-.19.21,1.18-.1,1.84-.15a9.93,9.93,0,0,1-3,.66c-3.75.23-7,3.46-8.48,6.45a17,17,0,0,0-1.12,2.85,13.84,13.84,0,0,0-3.16-1.71,9.81,9.81,0,0,0-4.51-.83c.2-.22.36-.44.45-.54.26-.31-.05-1.32-.05-1.32a3,3,0,0,0-.87-.95c-.5-.31-1.43.61-.94.56s0,0,.51,0,.7.47.32,1.23,0,0-.59.48-.36,0-1.5-.28c-.4-.08-1.17-.29-2-.52a5.16,5.16,0,0,0-.58-.61.43.43,0,0,0-.3-.11c-.36-.4-.74-.8-1.16-1.19a2.43,2.43,0,0,1,.15-.26,7.36,7.36,0,0,1,1.38.41c.33.16,1.16-.45,1.55-.75a5,5,0,0,1-2.8.17,9.15,9.15,0,0,1,1.84-1.73,4.73,4.73,0,0,0,1.74-1.7c.51-.85,1-1.48,1.35-2.24s1-2.13.34-3c0,0-.25,2.19-1.18,3a36.1,36.1,0,0,0-3.24,3c-.59.73-1,1.71-2.09,1.84h0a4.91,4.91,0,0,0-.48-.41c0-.07.06-.15.09-.21a41,41,0,0,1,2.68-4.33c.28-.34.9-.24,1.06-.63s-1.3-1.12-1.48-.82-.3.49-.48.79-.27.33-1,.72a23.66,23.66,0,0,0-3.07,3.4l-.07,0-.57-.81-1.1-1.59c-1.17-1.67-1.06-1.77-2.56-2.77a29.37,29.37,0,0,0-2.56-1.51c-1.46-.85-3.18-1.91-3.87-1.7l1.63.88c.44,0,1.17.68,2,1.18s2.22,1.06,2.68,1.69.58.5,1.09,1.18c.35.48,2,2.23,3,3.25l-.29-.16a4.71,4.71,0,0,0-1.2-1.17,16.78,16.78,0,0,0-2.71-.85c-.29,0,1,.61,1.54,1a10,10,0,0,1-2.79-1.25c-3.11-2-7.74-1.37-10.83.11a19,19,0,0,0-5.82,4.33,19.82,19.82,0,0,0-2.66-6.05,27.37,27.37,0,0,1,2.7,1c.87.32,1.69-.92,1.95-1.22s0-1.32,0-1.32a3,3,0,0,0-.88-.95c-.5-.31-1.43.61-.94.56s0,0,.51,0,.71.47.33,1.23,0,0-.6.48-.36,0-1.5-.28c-.45-.1-1.37-.34-2.33-.61a16,16,0,0,0-1.71-1.82,1.53,1.53,0,0,1,.16-.26,7.46,7.46,0,0,1,1.37.41c.33.16,1.16-.45,1.55-.75a5,5,0,0,1-2.79.17,8.84,8.84,0,0,1,1.83-1.73,4.69,4.69,0,0,0,1.75-1.7c.51-.85,1-1.48,1.34-2.24s1-2.13.34-3c0,0-.25,2.19-1.18,3a36.1,36.1,0,0,0-3.24,3c-.59.73-1,1.71-2.09,1.84h0a4,4,0,0,0-.48-.41l.09-.21A42.72,42.72,0,0,1,283,44.57c.28-.34.9-.24,1.06-.63s-1.3-1.12-1.48-.82-.29.49-.48.79-.27.33-1,.72A23.16,23.16,0,0,0,278,48l-.08,0-.57-.81c-.31-.46-.69-1-1.1-1.59-1.16-1.67-1.06-1.77-2.56-2.77a29.25,29.25,0,0,0-2.55-1.51c-1.47-.85-3.19-1.91-3.88-1.7l1.63.88c.45,0,1.17.68,2,1.18s2.22,1.06,2.68,1.69.58.5,1.09,1.18c.36.48,2,2.23,3,3.25l-.29-.16a4.71,4.71,0,0,0-1.2-1.17,16.48,16.48,0,0,0-2.71-.85c-.29,0,1,.61,1.54,1a10,10,0,0,1-2.79-1.25c-3.1-2-7.74-1.37-10.83.11a18.78,18.78,0,0,0-8,7.25,17.79,17.79,0,0,0-1.25,2.56c-.32-.15-.64-.29-1-.41a9.68,9.68,0,0,0-4.54-.83,17.88,17.88,0,0,0-5.65,1.77,22.18,22.18,0,0,1,1.17-2.07c.39-.68-.52-1.4-.74-1.62s-1.1-.05-1.1-.05a2.83,2.83,0,0,0-.91.63c-.32.38.31,1.17.33.78s0,0,.11-.4.48-.53,1.06-.18,0,0,.31.5-.07.28-.44,1.17c-.14.35-.47,1.07-.82,1.8a16.18,16.18,0,0,0-1.75,1.25l-.19-.14a5.15,5.15,0,0,1,.53-1.06c.17-.26-.22-1-.41-1.28a3.78,3.78,0,0,1-.25,2.22,6.08,6.08,0,0,1-1.17-1.55,3.4,3.4,0,0,0-1.17-1.49c-.64-.45-1.1-.85-1.68-1.2s-1.62-.9-2.4-.45c0,0,1.77.33,2.3,1.11a23.39,23.39,0,0,0,2,2.75c.52.51,1.28.91,1.24,1.77h0a3.31,3.31,0,0,0-.41.35l-.16-.08a29.3,29.3,0,0,1-3.22-2.39c-.24-.24-.07-.72-.38-.88s-1.11,1-.88,1.13l.59.42c.22.16.24.24.45.87a15.85,15.85,0,0,0,2.4,2.63l0,.06-.75.4-1.47.78a8.28,8.28,0,0,0-2,1.22,19.84,19.84,0,0,0-2.69-1.25,15.18,15.18,0,0,0-7.1-1.29A27.9,27.9,0,0,0,212.42,63a33.36,33.36,0,0,1,1.84-3.25c.6-1-.83-2.19-1.17-2.54s-1.71-.06-1.71-.06a4.56,4.56,0,0,0-1.43,1c-.5.59.48,1.83.52,1.22s0,0,.16-.62.76-.83,1.66-.29,0,0,.5.78-.13.44-.69,1.83c-.23.55-.75,1.67-1.3,2.82a24.94,24.94,0,0,0-2.72,1.95,2.58,2.58,0,0,1-.31-.22A9.36,9.36,0,0,1,208.6,64c.27-.4-.34-1.48-.63-2a6,6,0,0,1-.4,3.47A9.86,9.86,0,0,1,205.73,63a5.18,5.18,0,0,0-1.82-2.32c-1-.72-1.72-1.34-2.62-1.89s-2.54-1.41-3.77-.7c0,0,2.78.52,3.6,1.75.72,1.07,2,2.95,2.84,3.93a2,2,0,0,1-.42.71l-1,.92-1.11-.85.11-.16c.18-.24.58-.17.69-.45s-.85-.8-1-.58l-.31.56a1.11,1.11,0,0,1-.11.16c-.3-.24-.51-.42-.59-.5-.37-.37-.1-1.13-.58-1.37S198,63.72,198.33,64l.92.66a1.05,1.05,0,0,1,.4.5c-.41.5-.91,1.17-1.32,1.73l-.05,0-.36-.58-.72-1.13c-.65-1-.69-1.23-1.31-1.71.2-.36-.07-1.26-.07-1.26a3,3,0,0,0-.87-.95c-.5-.31-1.44.61-.95.56s0,0,.51,0,.62.37.44.93c-.32-.21-.39-.23-1.06-.65-.94-.61-2-1.36-2.5-1.21l1.05.62c.29,0,.76.48,1.27.84.31.22.75.45,1.13.7h0c-.38.76,0,0-.59.48s-.36,0-1.51-.28c-.45-.1-1.37-.34-2.32-.61a17.1,17.1,0,0,0-1.72-1.82,2.63,2.63,0,0,1,.16-.26,7.46,7.46,0,0,1,1.37.41c.33.16,1.16-.45,1.55-.75a5,5,0,0,1-2.79.17,8.84,8.84,0,0,1,1.83-1.73,4.69,4.69,0,0,0,1.75-1.7c.51-.85,1-1.48,1.35-2.24s1-2.13.33-3c0,0-.24,2.19-1.17,3a35,35,0,0,0-3.25,3c-.58.73-1,1.71-2.09,1.84h0a4,4,0,0,0-.48-.41l.09-.21A42.59,42.59,0,0,1,190,54.57c.27-.34.89-.24,1.06-.63s-1.31-1.12-1.49-.82l-.47.79c-.19.3-.28.33-1,.72A23.07,23.07,0,0,0,185,58L185,58l-.57-.81-1.11-1.59c-1.16-1.67-1.05-1.77-2.55-2.77a29.37,29.37,0,0,0-2.56-1.51c-1.46-.85-3.18-1.91-3.87-1.7l1.62.88c.45,0,1.17.68,2,1.18s2.22,1.06,2.68,1.69.58.5,1.09,1.18c.36.48,2,2.23,3,3.25l-.29-.16a4.72,4.72,0,0,0-1.19-1.17,16.88,16.88,0,0,0-2.72-.85c-.29,0,1,.61,1.55,1a10,10,0,0,1-2.79-1.25c-3.11-2-7.75-1.37-10.84.11a18.7,18.7,0,0,0-8,7.25,19,19,0,0,0-1.26,2.56,10.25,10.25,0,0,0-1-.41A9.66,9.66,0,0,0,153.6,64a16.89,16.89,0,0,0-5.1,1.52c-.06-.16-.13-.31-.19-.46.29-.51.62-1,.82-1.36.38-.68-.53-1.4-.75-1.62s-1.09-.05-1.09-.05-.17.08-.37.2a16,16,0,0,0-1.36-1.93A17.06,17.06,0,0,0,141,56.49a17.59,17.59,0,0,0-6.72-2.28h0a16.54,16.54,0,0,0,.88-4.7A17.29,17.29,0,0,0,135,46.3a16.53,16.53,0,0,0-1.53-5.19A17.27,17.27,0,0,0,129.66,36a20.23,20.23,0,0,0-4-2.94,13.13,13.13,0,0,0-5.5-1.94,21.16,21.16,0,0,0-7.11,1,23.63,23.63,0,0,1,1.64-2.27c.54-.73-.52-1.79-.76-2.11s-1.34-.28-1.34-.28a3.36,3.36,0,0,0-1.18.57c-.43.39.27,1.49.33,1s0,0,.17-.46.65-.54,1.32,0,0,0,.34.67-.12.33-.65,1.33c-.21.39-.69,1.19-1.19,2a17.85,17.85,0,0,0-2.27,1.14l-.22-.21a6.12,6.12,0,0,1,.75-1.17c.24-.27-.18-1.19-.38-1.62a4.34,4.34,0,0,1-.52,2.63,8.78,8.78,0,0,1-1.29-2.13,4.68,4.68,0,0,0-1.3-2c-.73-.68-1.26-1.26-1.94-1.8s-1.91-1.43-2.91-1c0,0,2.15.77,2.72,1.83a34.89,34.89,0,0,0,2.22,3.74c.59.72,1.49,1.36,1.36,2.39h0a3.47,3.47,0,0,0-.54.34l-.19-.13a43.06,43.06,0,0,1-3.73-3.56c-.27-.33,0-.89-.38-1.13S101.7,30.73,102,31l.68.64c.26.24.27.33.47,1.14a22.92,22.92,0,0,0,2.7,3.68l-.06.06-1,.33-1.87.63c-2,.67-2.06.55-3.43,1.7a24.89,24.89,0,0,0-2.16,2c-.55.51-1.13,1.05-1.63,1.56a4.67,4.67,0,0,0-.58-.62C94.89,41.86,94,42,94,42a2.83,2.83,0,0,0-.91.63c-.32.38.31,1.17.33.78s0,0,.11-.4.48-.53,1.06-.18,0,0,.31.5l.09.15a1.87,1.87,0,0,0-.32.63,2,2,0,0,0-.21.39c-.14.35-.47,1.07-.82,1.8a16.18,16.18,0,0,0-1.75,1.25l-.19-.14a5.15,5.15,0,0,1,.53-1.06c.17-.26-.22-1-.41-1.28a3.78,3.78,0,0,1-.25,2.22,6.36,6.36,0,0,1-1.18-1.55,3.31,3.31,0,0,0-1.16-1.49c-.64-.45-1.1-.85-1.68-1.2s-1.62-.9-2.4-.45c0,0,1.77.33,2.29,1.11a24.58,24.58,0,0,0,2,2.75c.52.51,1.28.91,1.24,1.77h0a3.31,3.31,0,0,0-.41.35l-.16-.08a29.3,29.3,0,0,1-3.22-2.39c-.24-.24-.07-.72-.38-.88s-1.11,1-.88,1.13l.59.42c.22.16.23.24.45.87a15.85,15.85,0,0,0,2.4,2.63l0,.06-.75.4-1.47.78-.47.24a6.53,6.53,0,0,0-2.46-2.63,29.25,29.25,0,0,0-2.55-1.51c-1.47-.85-3.19-1.91-3.88-1.7l1.63.88c.45,0,1.17.68,2,1.18s2.22,1.06,2.68,1.69.58.5,1.09,1.18c.15.21.55.65,1,1.17a6.44,6.44,0,0,0-.62.36A7,7,0,0,0,83.62,52c-.24,0,.62.44,1.23.78l-.07.06a8.77,8.77,0,0,1-2.41-1.12c-3.1-2-7.74-1.37-10.83.11a18.7,18.7,0,0,0-8,7.25,16.86,16.86,0,0,0-1.26,2.56c-.32-.15-.64-.29-1-.41a9.68,9.68,0,0,0-4.54-.83,18,18,0,0,0-5.65,1.77,22.18,22.18,0,0,1,1.17-2.07c.39-.68-.52-1.4-.74-1.62s-1.09,0-1.09,0a2.94,2.94,0,0,0-.92.63c-.32.38.31,1.17.33.78s0,0,.11-.4.48-.53,1.06-.18,0,0,.31.5-.07.28-.44,1.17c-.14.35-.47,1.07-.82,1.8a17.23,17.23,0,0,0-1.75,1.25l-.19-.14a5.15,5.15,0,0,1,.53-1.06c.17-.26-.22-1-.41-1.28A3.78,3.78,0,0,1,48,63.68a6.08,6.08,0,0,1-1.17-1.55,3.4,3.4,0,0,0-1.17-1.49c-.64-.45-1.1-.85-1.67-1.2l0,0c0-.17.08-.32.11-.41.15-.45-.8-1.45-.8-1.45a4.65,4.65,0,0,0-1.61-.68c-.78-.13-1.41,1.32-.84,1s0,0,.65-.18,1.08.18,1.09,1.11a1.44,1.44,0,0,0-1,.14,8.29,8.29,0,0,1,1,.27c0,.5,0-.19-.44.51s-.46.12-2,.35c-.61.09-1.88.22-3.2.35a25.54,25.54,0,0,0-3.13-1.28,2.58,2.58,0,0,1,0-.36,10.59,10.59,0,0,1,1.91-.15c.5,0,1.16-1,1.48-1.53a6.59,6.59,0,0,1-3.34,1.42,9.78,9.78,0,0,1,1.28-2.74,5.17,5.17,0,0,0,1.18-2.68c.14-1.18.34-2.09.38-3.11s0-2.82-1.26-3.47c0,0,.93,2.56.23,3.85a37.69,37.69,0,0,0-2.28,4.79c-.31,1.07-.28,2.36-1.52,3h0a8,8,0,0,0-.82-.25,2.53,2.53,0,0,1,0-.27,45,45,0,0,1,.83-6.05c.15-.49,1-.65,1-1.17s-2.23-.68-2.28-.26-.09.68-.14,1.1-.15.49-.87,1.26c-.45.48-1.27,3.2-1.83,5.18l-.12,0-1.15-.66-2.25-1.28c-2.37-1.36-2.3-1.52-4.7-2s-1.72-.26-4-.56-5-.73-5.71-.19l2.49.26a11,11,0,0,1,3.07.46c1.25.21,3.32.2,4.24.7s1,.31,2,.84c.7.38,3.71,1.61,5.48,2.33l-.44-.06a7.13,7.13,0,0,0-2.13-.78,23,23,0,0,0-3.81.26c-.32.18,1.56.24,2.44.39a14.93,14.93,0,0,1-4.12-.16c-5-.89-10.27,1.9-13.22,4.92A20.19,20.19,0,0,0,.15,73.88a19.3,19.3,0,0,0,0,4.68H0v85.17H434.56V78.56ZM45.28,67h0l0,0ZM87,53.32l0,0,.1.1,0,.06Zm.3-.25,0-.08.28-.34ZM202.13,68.55a2.58,2.58,0,0,1-1.24,0,5.52,5.52,0,0,1,.56-.67Zm-.43.38c.12.07.36-.06.59-.22l1.41,1.4-.07.09-.56.29c-.32-.08-.78-.22-1.25-.37a11.89,11.89,0,0,0-1.11-1.29,1.18,1.18,0,0,1,.1-.19A5.15,5.15,0,0,1,201.7,68.93Zm.77,2.25.21-.15.12,0a2.9,2.9,0,0,0-.29.19A.59.59,0,0,0,202.47,71.18Zm30.28-7.35c.15-.08.65-.83,1-1.18A14.41,14.41,0,0,1,233,64ZM380.39,58c.62-.68,1.4-2,2.1-2.31s.6-.49,1.37-.88c.54-.27,2.58-1.6,3.77-2.39l-.21.25a4.69,4.69,0,0,0-1.37,1,14.94,14.94,0,0,0-1.24,2.46c0,.28.76-.86,1.21-1.33a9.51,9.51,0,0,1-1.67,2.48,8.43,8.43,0,0,0-2.06,5.56l-.48-.67-1.1-1.59c-.61-.87-.87-1.31-1.2-1.68C379.78,58.64,380.1,58.34,380.39,58Zm-1.49,1.7a1,1,0,0,1,.12-.26l.06.07c.35.48,2,2.23,3,3.25l-.29-.16a4.71,4.71,0,0,0-1.2-1.17c-.33-.11-1.73-.65-2.4-.8ZM378,60.82c.34.21,1,.53,1.36.76a14.89,14.89,0,0,1-1.52-.56Zm-60.49,3.61c-.45.13-.9.28-1.35.44-.23-.4-.46-.79-.69-1.15A16.41,16.41,0,0,1,317.55,64.43ZM232,62.78c.44-.25,2.12-1.45,3.1-2.16l-.17.22a4.29,4.29,0,0,0-1.13.88,13,13,0,0,0-1.08,2.09c-.39-.26-.78-.5-1.17-.73A2.85,2.85,0,0,1,232,62.78Zm-27.91,1.69a3.89,3.89,0,0,0,.16-.39l0,0c.81.8,2,1.42,1.93,2.76h0a6.41,6.41,0,0,0-.64.56l-.25-.13a22.26,22.26,0,0,1-2-1.39C203.58,65.4,203.85,65,204.08,64.47ZM201,67.32a1.29,1.29,0,0,1-.87.6h0a2.87,2.87,0,0,0-.31-.29,1.16,1.16,0,0,1,.06-.15,9,9,0,0,1,.47-.94C200.48,66.76,200.7,67,201,67.32Zm-5.34-3.55a3.51,3.51,0,0,1,.53.6c.23.34,1.29,1.59,1.92,2.32l-.18-.12a3.16,3.16,0,0,0-.78-.83,9.63,9.63,0,0,0-1.75-.61c-.19,0,.64.44,1,.69a6,6,0,0,1-1.81-.89c-.1-.07-.23-.12-.34-.19C194.78,64.73,195.3,64.16,195.62,63.77Zm-3.19.35a5.88,5.88,0,0,0-1-.08l-.19-.32A9.61,9.61,0,0,1,192.43,64.12Zm-44.56-1.25c.58.35,0,0,.32.5s0,.34-.24.78c-.22-.5-.48-1-.75-1.47A1.11,1.11,0,0,1,147.87,62.87ZM95.93,43c.14-.41,1-.92,1.68-1.53s1.62-1.8,2.37-2.07.65-.42,1.46-.72c.57-.22,2.75-1.32,4-2l-.24.23a4.63,4.63,0,0,0-1.47.82,14.86,14.86,0,0,0-1.53,2.31c0,.28.86-.77,1.36-1.19a9.56,9.56,0,0,1-2,2.28,7.48,7.48,0,0,0-2,2.92,19.65,19.65,0,0,0-4.93,1.67,22.18,22.18,0,0,1,1.17-2.07.74.74,0,0,0,0-.63Zm-7.08,7.59-.17.22a4.12,4.12,0,0,0-1.13.88c-.09.14-.33.55-.56,1l-.35-.5C87.33,51.71,88.23,51.07,88.85,50.62Zm-2.61,1.84.55.6,0,.07a1.54,1.54,0,0,0-.42-.32l-.4-.14ZM42.41,61.25c.75,0,1.16-.66,1.4-1.26l.11.11a23.39,23.39,0,0,0,2,2.75c.52.51,1.28.91,1.24,1.77h0a3.31,3.31,0,0,0-.41.35l-.16-.08a29.3,29.3,0,0,1-3.22-2.39c-.24-.24-.07-.72-.37-.88s-1.11,1-.89,1.13l.59.42c.23.16.24.24.45.87a15.85,15.85,0,0,0,2.4,2.63l0,.06-.33.17a28,28,0,0,0-6.64-5.54A37.65,37.65,0,0,1,42.41,61.25Z"/><path class="cls-2" d="M37.26,57.15a.76.76,0,0,0,.16-.2C37.46,56.82,37.39,56.94,37.26,57.15Z"/><path class="cls-2" d="M208,62a.67.67,0,0,0-.11-.24C207.77,61.62,207.84,61.74,208,62Z"/><path class="cls-2" d="M48.29,61.46a.57.57,0,0,0-.06-.15C48.17,61.25,48.21,61.32,48.29,61.46Z"/><path class="cls-2" d="M162.57,36.22a.29.29,0,0,0,.1-.07S162.65,36.14,162.57,36.22Z"/><path class="cls-2" d="M145.19,47.87a9.48,9.48,0,0,0,2.42,2.34,11.22,11.22,0,0,0,3.16,1.48,12.57,12.57,0,0,0,7.53-.14,12.05,12.05,0,0,0,1.77-.75A10.13,10.13,0,0,0,162.64,49a8.67,8.67,0,0,0,2.62-5.16A5.14,5.14,0,0,0,165,41a10.18,10.18,0,0,0-2.34-3c.56,0,1.28.19,1.7.25s.89-.6,1-.78-.18-.66-.18-.66a1.87,1.87,0,0,0-.62-.4c-.33-.11-.77.43-.49.36s0,0,.3,0,.47.17.34.59,0,0-.3.29-.21,0-.92,0c-.27,0-.85,0-1.44-.11a10.67,10.67,0,0,0-1.22-.76,1,1,0,0,1,.07-.15,5.13,5.13,0,0,1,.85.09c.22.05.63-.33.83-.51a3.34,3.34,0,0,1-1.63.32,4.71,4.71,0,0,1,.88-1,2.43,2.43,0,0,0,.84-1c.2-.47.4-.83.53-1.24s.33-1.15-.14-1.52a2.48,2.48,0,0,1-.35,1.6,17.14,17.14,0,0,0-1.57,1.78c-.26.41-.4.94-1,1.1h0a2,2,0,0,0-.33-.17l0-.11a19.11,19.11,0,0,1,1.08-2.41c.13-.19.51-.19.56-.41s-.9-.45-1-.28-.12.27-.19.44-.13.19-.53.45a10.66,10.66,0,0,0-1.42,2l-.05,0-.43-.36-.83-.7a4.21,4.21,0,0,0-1.82-1.17c-1-.38-.73-.24-1.69-.55a6.06,6.06,0,0,0-2.47-.52l1.06.3a4.86,4.86,0,0,1,1.29.43,7.63,7.63,0,0,1,1.77.62c.34.27.4.2.78.5s1.44.95,2.13,1.38l-.19,0a2.94,2.94,0,0,0-.84-.49,11.7,11.7,0,0,0-1.7-.2c-.16,0,.66.23,1,.36a6.87,6.87,0,0,1-1.78-.39,8.05,8.05,0,0,0-6.37,1,9.61,9.61,0,0,0-3.88,4.33,7.69,7.69,0,0,0-.62,3.85A8,8,0,0,0,145.19,47.87Z"/><path class="cls-2" d="M316.09,60.19a.43.43,0,0,0,.18-.11C316.34,60,316.26,60.07,316.09,60.19Z"/><path class="cls-2" d="M350.05,53.68a.64.64,0,0,0,.08-.19C350.13,53.38,350.1,53.48,350.05,53.68Z"/><path class="cls-2" d="M238.07,55.11A.35.35,0,0,0,238,55C238,54.9,238,55,238.07,55.11Z"/><path class="cls-2" d="M284.75,50.19a.37.37,0,0,0,.18-.11C285,50,284.92,50.07,284.75,50.19Z"/><path class="cls-2" d="M191.78,60.19a.41.41,0,0,0,.19-.11C192,60,192,60.07,191.78,60.19Z"/><path class="cls-2" d="M91.83,45.11a.35.35,0,0,0-.07-.15C91.71,44.9,91.75,45,91.83,45.11Z"/><path class="cls-2" d="M109.65,30.7a.36.36,0,0,0-.06-.2C109.52,30.41,109.57,30.51,109.65,30.7Z"/><path class="cls-2" d="M321.78,33.16s0-.07,0-.08S321.74,33.08,321.78,33.16Z"/><path class="cls-2" d="M317,38.71a6.27,6.27,0,0,1,.93-1.07c.31-.17.27-.23.6-.42s1.13-.77,1.65-1.14l-.09.12a2,2,0,0,0-.6.46,7.32,7.32,0,0,0-.57,1.11c0,.12.34-.4.53-.62a4.56,4.56,0,0,1-.75,1.13,4.9,4.9,0,0,0-.75,4.55,7,7,0,0,0,2.6,3.59,7.53,7.53,0,0,0,3,1.27,8.1,8.1,0,0,0,3.53-.16,8.38,8.38,0,0,0,2.5-1.12,7.9,7.9,0,0,0,2.48-2.55,9.54,9.54,0,0,0,1.1.73,9.39,9.39,0,0,0,3.59,1.12,9.91,9.91,0,0,0,4.69-.66A9.33,9.33,0,0,0,344,43.62a9,9,0,0,0,2.25-2.54,10.19,10.19,0,0,0,1.07-2.33,6.29,6.29,0,0,0,.32-3,10.07,10.07,0,0,0-1.45-3.37c.48.12,1.08.39,1.43.51s.9-.48,1-.64,0-.7,0-.7a1.53,1.53,0,0,0-.46-.51c-.26-.16-.76.33-.5.3s0,0,.27,0,.38.25.17.65,0,0-.31.25-.19,0-.8-.14l-1.23-.33a8.13,8.13,0,0,0-.91-1,1,1,0,0,1,.08-.14,3.61,3.61,0,0,1,.73.22c.18.08.62-.24.82-.4a2.67,2.67,0,0,1-1.48.09,5,5,0,0,1,1-.92,2.56,2.56,0,0,0,.92-.9c.27-.45.51-.79.72-1.19s.51-1.13.17-1.57a3,3,0,0,1-.62,1.58,18.22,18.22,0,0,0-1.72,1.58c-.31.38-.54.91-1.11,1h0a1.79,1.79,0,0,0-.25-.22l.05-.12a21.6,21.6,0,0,1,1.42-2.29c.14-.18.48-.13.56-.33s-.69-.6-.79-.44l-.25.42c-.09.16-.14.18-.55.38a12.71,12.71,0,0,0-1.63,1.81l0,0c-.09-.11-.19-.26-.31-.43l-.58-.84c-.62-.88-.56-.94-1.36-1.47s-.58-.35-1.35-.8-1.69-1-2.06-.9l.87.47c.23,0,.62.36,1,.62a6.66,6.66,0,0,1,1.42.9c.24.33.31.26.58.62s1.06,1.19,1.57,1.73l-.15-.09a2.86,2.86,0,0,0-.63-.62,9.09,9.09,0,0,0-1.44-.45c-.16,0,.52.33.82.51a5.08,5.08,0,0,1-1.48-.66c-1.65-1.07-4.11-.72-5.75.06a10,10,0,0,0-4.23,3.84,8.76,8.76,0,0,0-.67,1.38c-.17-.08-.34-.17-.51-.24a5.14,5.14,0,0,0-2.41-.43,9.49,9.49,0,0,0-3,.93c.16-.37.47-.83.62-1.1s-.28-.74-.39-.86-.58,0-.58,0a1.49,1.49,0,0,0-.49.33c-.17.2.17.63.18.42s0,0,.05-.21.26-.28.57-.1,0,0,.16.26,0,.15-.23.63c-.07.18-.25.56-.44,1a7.84,7.84,0,0,0-.92.66l-.1-.07a2.51,2.51,0,0,1,.28-.57c.09-.13-.12-.5-.22-.67a2.09,2.09,0,0,1-.13,1.18,3.64,3.64,0,0,1-.63-.83,1.73,1.73,0,0,0-.62-.79c-.33-.24-.58-.45-.88-.64s-.86-.47-1.28-.23c0,0,.94.17,1.22.59a14.4,14.4,0,0,0,1.07,1.45c.28.27.68.49.66.94L321,35l-.08-.05a15.59,15.59,0,0,1-1.71-1.26c-.13-.13,0-.39-.2-.47s-.59.51-.47.6l.32.22c.12.09.12.13.23.46a8.51,8.51,0,0,0,1.28,1.4l0,0-.4.21-.77.41a3.5,3.5,0,0,0-1.41,1,12.75,12.75,0,0,0-.85,1c-.48.59-1.07,1.27-1,1.57l.5-.66C316.4,39.31,316.74,39,317,38.71Z"/><path class="cls-2" d="M346.52,30.55a.21.21,0,0,0,.1-.06S346.61,30.48,346.52,30.55Z"/><path class="cls-2" d="M303.65,23.39a.16.16,0,0,0,0-.06S303.62,23.34,303.65,23.39Z"/><path class="cls-2" d="M300,27.7a4.3,4.3,0,0,1,.72-.83c.24-.13.21-.18.47-.32s.87-.6,1.28-.89l-.08.09a1.71,1.71,0,0,0-.46.36,6,6,0,0,0-.45.86c0,.1.27-.31.42-.48a3.75,3.75,0,0,1-.58.88,3.77,3.77,0,0,0-.58,3.52,5.44,5.44,0,0,0,2,2.79,5.86,5.86,0,0,0,2.32,1,6.35,6.35,0,0,0,2.74-.12,6.5,6.5,0,0,0,1.94-.87,6.42,6.42,0,0,0,1.53-1.42,6.19,6.19,0,0,0,1.1-2.15,5.81,5.81,0,0,0,.23-1.84,6.29,6.29,0,0,0-.15-1.06,4.94,4.94,0,0,0-.64-1.66,5.06,5.06,0,0,0-1.39-1.5,6,6,0,0,0-1.38-.76,4,4,0,0,0-1.87-.34,7.43,7.43,0,0,0-2.32.73c.13-.29.36-.64.48-.85s-.21-.58-.3-.67-.45,0-.45,0a1.42,1.42,0,0,0-.38.26c-.13.16.13.48.14.32s0,0,0-.16.2-.22.44-.08,0,0,.13.21,0,.11-.18.48l-.34.74a6.36,6.36,0,0,0-.72.51.21.21,0,0,1-.08-.06,2.39,2.39,0,0,1,.22-.43c.07-.11-.09-.39-.17-.53a1.61,1.61,0,0,1-.1.92,2.73,2.73,0,0,1-.49-.64,1.33,1.33,0,0,0-.48-.61c-.26-.19-.45-.36-.68-.5s-.67-.37-1-.18c0,0,.73.13.94.46a11.26,11.26,0,0,0,.83,1.12c.22.21.53.38.51.73h0l-.17.15-.06,0a11.84,11.84,0,0,1-1.33-1c-.09-.1,0-.3-.15-.36s-.45.4-.36.46l.24.18c.09.06.1.09.18.35a7.16,7.16,0,0,0,1,1.09l0,0-.31.16-.6.32a2.73,2.73,0,0,0-1.09.76c-.42.47-.29.34-.66.8s-.83,1-.8,1.21l.39-.5C299.48,28.16,299.74,27.94,300,27.7Z"/><path class="cls-2" d="M391.07,46a.56.56,0,0,0-.09-.19C390.9,45.72,391,45.81,391.07,46Z"/></g></g></svg>