<svg xmlns="http://www.w3.org/2000/svg" viewBox="0 0 145.25 46.48"><defs><style>.cls-1{fill:#fff;}</style></defs><g id="Layer_2" data-name="Layer 2"><g id="Layer_1-2" data-name="Layer 1"><path class="cls-1" d="M6.89,4.89c-.23-.5-.14-.77.45-.82,3.78-.41,7.19-2.32,10.28-2.46,2.32-.09,4.32.64,5.41,3.78,1,2.73.19,5.37-1.36,7.78-2.27,3.54-7.19,7-13.14,8.09a4.14,4.14,0,0,1-2.82-.45c-1.28,2.5-2.64,5.5-4.23,9.28-.19.45-.41.45-.73.13-.64-.68-1.09-2-.41-4.5C1.52,21.58,5.8,13,9.75,6.8A3.35,3.35,0,0,1,6.89,4.89Zm14.19.91c-1-2.5-5.5-.14-8.51.73a10.27,10.27,0,0,1-1.72,5C9.66,13.62,8.39,15.71,7,18.26,17.21,16.35,22.31,9,21.08,5.8Z"/><path class="cls-1" d="M62.33,26c-1.27,2.5-4.19,4.86-6.78,4.82-3.91-.05-5.27-3.14-3.68-6.82s5.68-8.83,5-9.1c-.36-.14-1.95.46-4.87,3.37-3.72,3.73-6,8.05-7.86,12.28-.23.54-.64.68-1,.27-.73-.73-1.27-2.46-.05-5.69,1.46-3.77,6.33-10,5.46-10.37-.45-.18-2.73,1-5.64,4.23-2.63,2.87-4.82,7-6.64,11.33-.18.36-.41.5-.86.13-1-.77-1.18-2.31-.46-4.59a47.65,47.65,0,0,1,2.91-6.37,6.23,6.23,0,0,1-4.23,1.14c-.9,3.91-3.77,8.64-7.14,9.73a4.9,4.9,0,0,1-5.77-1.95c-2-2.64-1.28-6.64.77-10.24,1.73-3,4.5-5.73,7.23-5.91a3.08,3.08,0,0,1,3,1.55c1.09,1.41,2.46,1.64,2.18,5a2,2,0,0,1-.09.73c2.91,0,5.87-3.41,8.19-7.1a.54.54,0,0,1,1,0c.73,1.19.59,3-.09,4.73,2.05-2.27,5.37-5,7-4.91s2.32,2.46,1.78,4.46c2.13-2.05,5.18-4.18,6.64-4.14,1.63.05,2,2.73,1.09,4.91s-3.05,5-4.14,7.28c-1.27,2.59-.68,4.73,1,4.64s3.87-3.05,5.59-6.28c.23-.41.55-.32.78,0A4.09,4.09,0,0,1,62.33,26ZM27.67,15.58a16.88,16.88,0,0,0-3.5,4.32c-2,3.41-2.59,7.55-1.41,8.59s4-.59,6.23-4.68a18.36,18.36,0,0,0,1.64-3.91A5.56,5.56,0,0,1,27.67,15.58Zm3.6,0c-.23-1.46-1.19-1.23-1.37.13A3.51,3.51,0,0,0,31,18.76,9.24,9.24,0,0,0,31.27,15.58Z"/><path class="cls-1" d="M75.56,20.76c-1,3.87-3.82,8.46-7.19,9.6a5,5,0,0,1-5.73-2c-2-2.64-1.32-6.6.73-10.24,1.73-3.09,4.5-5.73,7.23-5.91a3.11,3.11,0,0,1,3.1,1.55c1,1.41,2.41,1.73,2.13,5,0,.37,0,.68-.09,1,.27,0,.55-.09.91-.09s.32.22.14.45A1.82,1.82,0,0,1,75.56,20.76Zm-3.87-1.13a5.7,5.7,0,0,1-2.09-4,15.83,15.83,0,0,0-3.5,4.28c-1.91,3.46-2.59,7.64-1.41,8.64s4-.55,6.28-4.73a24.77,24.77,0,0,0,1.59-3.64A3.6,3.6,0,0,1,71.69,19.63Zm1.55-4c-.23-1.46-1.14-1.18-1.36.13a3.72,3.72,0,0,0,1,3.23A8.67,8.67,0,0,0,73.24,15.58Z"/><path class="cls-1" d="M89.2,29.45c1.87-.09,4.32-3.14,5.91-6.28.23-.41.55-.41.73,0A4,4,0,0,1,95.48,26c-1.23,2.5-4,4.91-6.55,4.77s-3.68-1.5-3.68-3.64c-1.46,1.82-3.51,3.51-5.64,3.51-4.23,0-5-5.78-1.32-11.24,3.59-5.27,7.23-7.32,9.5-7.32,1.87,0,2.78,1.41,2.73,3.09C93,10.44,96.43,4.25,98.07,1.93c.46-.63.86-.59,1.09,0,.64,1.5.5,3.46-1.41,6.87C95.57,12.71,91.2,20.22,88.93,25,87.7,27.68,87.66,29.54,89.2,29.45Zm-7.91-8.28c-2.46,3.91-3,7.87-1.18,7.92s4.27-2.64,6.41-6.78c2.64-5,3.32-7.91,2-8S83.79,17.17,81.29,21.17Z"/><path class="cls-1" d="M96.7,30.54C93.48,30.31,93.38,27,94.39,24a49,49,0,0,1,6.27-11.6.68.68,0,0,1,1.18,0c1,1.5.78,3.55-.86,6.14a48,48,0,0,0-3.55,6.69c-1,2.23-.82,3.87.23,4,1.77.13,4.28-3.05,6.73-7,2.87-4.64,4.19-7.78,5.64-9.73.46-.64.77-.73,1.14-.27.68.81,1,2.82,0,5.09-1,2-3.27,5.46-4.32,7.78-1.18,2.59-1,4.5.64,4.41,1.91-.09,4.23-3.09,6-6.28.23-.41.64-.45.82,0a3.94,3.94,0,0,1-.41,2.86c-1.32,2.55-4.14,4.87-6.82,4.87-3,0-4.14-1.87-3.78-4.5C101.66,28.4,99.25,30.72,96.7,30.54Z"/><path class="cls-1" d="M126.13,14.9c1,1.91-.86,4.32-1.77,6.77-.19.55-.37.68-1,.37-1.09-.55-1.73-1.91-1.09-4,.5-1.64,1.86-3.59,1.23-4.09-.78-.64-4.19,2.27-6.23,6.41-2.5,5.14-1.55,8.91,1.13,9,3.82,0,7.1-3.59,9-6.46.23-.36.64-.41.82.05a4,4,0,0,1-.82,2.72,11.3,11.3,0,0,1-8.77,5c-5.78.09-7.74-5.55-4.78-11.41s7.5-8.19,9.78-6.83A6,6,0,0,1,126.13,14.9Z"/><path class="cls-1" d="M138.86,11.58c1.73-.6,2.82.09,3.73,2a4.31,4.31,0,0,1-1,5.32,14.84,14.84,0,0,1-6.32,3.68c.18,3.73,1.45,6.32,3.18,6.51s4.37-3.32,5.73-6.14c.27-.55.68-.6.91-.05a3.39,3.39,0,0,1-.55,2.77c-1.09,1.92-3.18,4.83-6.77,4.78-3.19-.05-5.87-2.64-5.78-8.78,0-.82.09-1,1-1.23,5.64-1.86,8.64-5.82,8-7-.51-.82-2.51-.32-4.92,1.55-3.41,2.59-5.45,6.59-9,15-.13.36-.5.45-.82.09-.68-.77-.91-2.23,0-5C127.49,20.9,135,5.94,139.09.43c.41-.54.86-.59,1.14,0,.68,1.36.59,3.18-1.32,6.5-1.09,1.87-2.87,5.05-4.09,7.28A10.87,10.87,0,0,1,138.86,11.58Z"/><path class="cls-1" d="M5.5,39.85a8,8,0,0,1,1.27-.1,2.12,2.12,0,0,1,1.43.43,1.36,1.36,0,0,1,.44,1.07,1.5,1.5,0,0,1-.39,1.09,2.13,2.13,0,0,1-1.56.56,2.12,2.12,0,0,1-.53,0v2H5.5Zm.66,2.46a2.06,2.06,0,0,0,.54.06C7.5,42.37,8,42,8,41.28s-.48-1-1.21-1a2.78,2.78,0,0,0-.62,0Z"/><path class="cls-1" d="M12.64,43A1.79,1.79,0,0,1,10.81,45a1.74,1.74,0,0,1-1.75-1.89,1.79,1.79,0,0,1,1.81-1.94A1.73,1.73,0,0,1,12.64,43Zm-2.91,0c0,.8.46,1.41,1.11,1.41S12,43.88,12,43.06c0-.62-.31-1.41-1.1-1.41S9.73,42.37,9.73,43.07Z"/><path class="cls-1" d="M13.48,42.22c0-.38,0-.69,0-1H14l0,.59h0a1.25,1.25,0,0,1,1.15-.67,1.09,1.09,0,0,1,1,.73h0a1.79,1.79,0,0,1,.41-.48,1.28,1.28,0,0,1,.81-.25c.49,0,1.21.32,1.21,1.59V44.9h-.65V42.82c0-.7-.26-1.13-.8-1.13a.87.87,0,0,0-.79.61,1.09,1.09,0,0,0-.05.33V44.9h-.65V42.7c0-.58-.26-1-.77-1a.91.91,0,0,0-.82.67.88.88,0,0,0-.06.33V44.9h-.65Z"/><path class="cls-1" d="M23.12,43A1.79,1.79,0,0,1,21.3,45a1.74,1.74,0,0,1-1.76-1.89,1.79,1.79,0,0,1,1.82-1.94A1.73,1.73,0,0,1,23.12,43Zm-2.91,0c0,.8.46,1.41,1.12,1.41s1.11-.6,1.11-1.42c0-.62-.31-1.41-1.1-1.41S20.21,42.37,20.21,43.07Z"/><path class="cls-1" d="M27.13,39.52V44c0,.33,0,.7,0,.95h-.6l0-.64h0a1.36,1.36,0,0,1-1.25.72,1.67,1.67,0,0,1-1.57-1.86,1.75,1.75,0,0,1,1.64-2,1.23,1.23,0,0,1,1.11.56h0V39.52Zm-.67,3.2a.92.92,0,0,0,0-.28,1,1,0,0,0-1-.77c-.69,0-1.1.61-1.1,1.42s.37,1.35,1.09,1.35a1,1,0,0,0,1-.79.89.89,0,0,0,0-.29Z"/><path class="cls-1" d="M31.56,43A1.79,1.79,0,0,1,29.73,45,1.75,1.75,0,0,1,28,43.09a1.79,1.79,0,0,1,1.82-1.94A1.73,1.73,0,0,1,31.56,43Zm-2.91,0c0,.8.46,1.41,1.11,1.41s1.12-.6,1.12-1.42c0-.62-.31-1.41-1.1-1.41S28.65,42.37,28.65,43.07Z"/><path class="cls-1" d="M32.4,42.37c0-.43,0-.8,0-1.14H33L33,42h0a1.09,1.09,0,0,1,1-.8.55.55,0,0,1,.19,0v.63a.82.82,0,0,0-.23,0,.92.92,0,0,0-.89.85,2.72,2.72,0,0,0,0,.31v2H32.4Z"/><path class="cls-1" d="M38.12,43A1.79,1.79,0,0,1,36.3,45a1.74,1.74,0,0,1-1.76-1.89,1.79,1.79,0,0,1,1.82-1.94A1.73,1.73,0,0,1,38.12,43Zm-2.91,0c0,.8.46,1.41,1.12,1.41s1.11-.6,1.11-1.42c0-.62-.31-1.41-1.1-1.41S35.21,42.37,35.21,43.07Z"/><path class="cls-1" d="M40.59,39.86a6.5,6.5,0,0,1,1.21-.11,2.15,2.15,0,0,1,1.4.37,1.09,1.09,0,0,1,.42.91,1.21,1.21,0,0,1-.86,1.12h0a1.31,1.31,0,0,1,1.05,1.28,1.38,1.38,0,0,1-.43,1,2.58,2.58,0,0,1-1.76.47,7.85,7.85,0,0,1-1-.06ZM41.25,42h.6c.7,0,1.11-.36,1.11-.86s-.46-.83-1.12-.83a2.35,2.35,0,0,0-.59.05Zm0,2.45a4,4,0,0,0,.56,0c.68,0,1.31-.25,1.31-1s-.6-1-1.32-1h-.55Z"/><path class="cls-1" d="M44.68,42.37c0-.43,0-.8,0-1.14h.58l0,.72h0a1.09,1.09,0,0,1,1-.8.55.55,0,0,1,.19,0v.63a.82.82,0,0,0-.23,0,.92.92,0,0,0-.89.85,1.48,1.48,0,0,0,0,.31v2h-.66Z"/><path class="cls-1" d="M47.45,43.18a1.18,1.18,0,0,0,1.26,1.28,2.53,2.53,0,0,0,1-.19l.11.48a3.14,3.14,0,0,1-1.22.22,1.7,1.7,0,0,1-1.8-1.85,1.78,1.78,0,0,1,1.72-2,1.55,1.55,0,0,1,1.51,1.72,2.05,2.05,0,0,1,0,.31Zm2-.47a1,1,0,0,0-.93-1.09,1.11,1.11,0,0,0-1,1.09Z"/><path class="cls-1" d="M52.91,44.9l0-.46h0a1.36,1.36,0,0,1-1.12.54,1,1,0,0,1-1.12-1c0-.89.79-1.37,2.21-1.37v-.07a.76.76,0,0,0-.84-.85,1.88,1.88,0,0,0-1,.27l-.15-.44a2.32,2.32,0,0,1,1.2-.32c1.12,0,1.4.76,1.4,1.5V44a4.74,4.74,0,0,0,.06.88ZM52.81,43c-.73,0-1.55.11-1.55.82a.6.6,0,0,0,.63.64.9.9,0,0,0,.88-.62.49.49,0,0,0,0-.21Z"/><path class="cls-1" d="M55.19,42.91h0c.09-.13.22-.29.32-.41l1.08-1.27h.8L56,42.74l1.62,2.16H56.8l-1.27-1.76-.34.38V44.9h-.66V39.52h.66Z"/><path class="cls-1" d="M59.13,45.2l2.12-5.49h.51L59.64,45.2Z"/><path class="cls-1" d="M63.92,39.86a6.75,6.75,0,0,1,1.27-.11,2.1,2.1,0,0,1,1.48.42,1.31,1.31,0,0,1,.4,1,1.34,1.34,0,0,1-1,1.3v0a1.25,1.25,0,0,1,.75,1,8,8,0,0,0,.4,1.4h-.68a6.12,6.12,0,0,1-.34-1.22c-.16-.71-.43-1-1-1h-.62V44.9h-.66Zm.66,2.32h.68c.7,0,1.15-.38,1.15-1s-.48-.95-1.18-1a2.8,2.8,0,0,0-.65.06Z"/><path class="cls-1" d="M71.05,43.9c0,.38,0,.71,0,1h-.59l0-.6h0a1.38,1.38,0,0,1-1.21.68c-.57,0-1.26-.32-1.26-1.61V41.23h.66v2c0,.7.21,1.17.82,1.17a1,1,0,0,0,.88-.61.93.93,0,0,0,.06-.34V41.23h.67Z"/><path class="cls-1" d="M72.12,44.9c0-.25,0-.62,0-.95V39.52h.66v2.3h0a1.36,1.36,0,0,1,1.25-.67c.91,0,1.55.75,1.54,1.87A1.74,1.74,0,0,1,74,45a1.31,1.31,0,0,1-1.23-.69h0l0,.61Zm.69-1.47a2,2,0,0,0,0,.24,1,1,0,0,0,1,.78c.7,0,1.12-.57,1.12-1.41s-.38-1.36-1.09-1.36a1.07,1.07,0,0,0-1,.82,1.56,1.56,0,0,0,0,.27Z"/><path class="cls-1" d="M76.44,44.9c0-.25,0-.62,0-.95V39.52h.66v2.3h0a1.37,1.37,0,0,1,1.25-.67c.91,0,1.55.75,1.55,1.87a1.74,1.74,0,0,1-1.65,2,1.28,1.28,0,0,1-1.22-.69h0l0,.61Zm.69-1.47a1,1,0,0,0,0,.24,1,1,0,0,0,1,.78c.69,0,1.11-.57,1.11-1.41s-.38-1.36-1.09-1.36a1.07,1.07,0,0,0-1,.82,1.7,1.7,0,0,0,0,.27Z"/><path class="cls-1" d="M81.15,43.18a1.18,1.18,0,0,0,1.26,1.28,2.47,2.47,0,0,0,1-.19l.12.48a3.14,3.14,0,0,1-1.22.22,1.7,1.7,0,0,1-1.8-1.85,1.77,1.77,0,0,1,1.71-2,1.55,1.55,0,0,1,1.52,1.72c0,.14,0,.25,0,.31Zm2-.47a1,1,0,0,0-.93-1.09,1.11,1.11,0,0,0-1,1.09Z"/><path class="cls-1" d="M84.58,42.37c0-.43,0-.8,0-1.14h.58l0,.72h0a1.11,1.11,0,0,1,1-.8.58.58,0,0,1,.19,0v.63a.82.82,0,0,0-.23,0,.92.92,0,0,0-.89.85,1.48,1.48,0,0,0,0,.31v2h-.66Z"/><path class="cls-1" d="M91.83,39.52V44c0,.33,0,.7,0,.95h-.6l0-.64h0A1.37,1.37,0,0,1,90,45a1.67,1.67,0,0,1-1.57-1.86,1.75,1.75,0,0,1,1.64-2,1.23,1.23,0,0,1,1.11.56h0V39.52Zm-.67,3.2a1.41,1.41,0,0,0,0-.28,1,1,0,0,0-1-.77c-.69,0-1.1.61-1.1,1.42s.37,1.35,1.09,1.35a1,1,0,0,0,1-.79,1.29,1.29,0,0,0,0-.29Z"/><path class="cls-1" d="M96,43.9c0,.38,0,.71,0,1h-.6l0-.6h0a1.38,1.38,0,0,1-1.21.68c-.58,0-1.27-.32-1.27-1.61V41.23h.67v2c0,.7.21,1.17.82,1.17a1,1,0,0,0,.88-.61.93.93,0,0,0,.06-.34V41.23H96Z"/><path class="cls-1" d="M99.73,44.76a2.51,2.51,0,0,1-1.06.21,1.74,1.74,0,0,1-1.82-1.87,1.86,1.86,0,0,1,2-2,2.23,2.23,0,0,1,.92.19l-.15.52a1.56,1.56,0,0,0-.77-.17,1.38,1.38,0,0,0,0,2.75,1.94,1.94,0,0,0,.81-.18Z"/><path class="cls-1" d="M101.17,42.91h0a4.23,4.23,0,0,1,.33-.41l1.08-1.27h.8L102,42.74l1.62,2.16h-.82l-1.26-1.76-.34.38V44.9h-.66V39.52h.66Z"/><path class="cls-1" d="M108.84,39.52V44a9.23,9.23,0,0,0,0,.95h-.6l0-.64h0A1.35,1.35,0,0,1,107,45a1.67,1.67,0,0,1-1.56-1.86,1.75,1.75,0,0,1,1.64-2,1.23,1.23,0,0,1,1.11.56h0V39.52Zm-.67,3.2a1.41,1.41,0,0,0,0-.28,1,1,0,0,0-1-.77c-.69,0-1.1.61-1.1,1.42s.36,1.35,1.08,1.35a1,1,0,0,0,1-.79,1.29,1.29,0,0,0,0-.29Z"/><path class="cls-1" d="M110.32,43.18a1.17,1.17,0,0,0,1.25,1.28,2.53,2.53,0,0,0,1-.19l.11.48a3.06,3.06,0,0,1-1.22.22,1.7,1.7,0,0,1-1.8-1.85,1.78,1.78,0,0,1,1.72-2,1.55,1.55,0,0,1,1.52,1.72,1.77,1.77,0,0,1,0,.31Zm2-.47a1,1,0,0,0-.92-1.09,1.12,1.12,0,0,0-1,1.09Z"/><path class="cls-1" d="M113.71,44.9c0-.25,0-.62,0-.95V39.52h.66v2.3h0a1.36,1.36,0,0,1,1.25-.67c.91,0,1.55.75,1.54,1.87a1.74,1.74,0,0,1-1.64,2,1.3,1.3,0,0,1-1.23-.69h0l0,.61Zm.69-1.47a2,2,0,0,0,0,.24,1,1,0,0,0,1,.78c.7,0,1.12-.57,1.12-1.41s-.38-1.36-1.09-1.36a1.07,1.07,0,0,0-1,.82,1.56,1.56,0,0,0,0,.27Z"/><path class="cls-1" d="M121.12,43.9c0,.38,0,.71,0,1h-.59l0-.6h0a1.38,1.38,0,0,1-1.21.68c-.58,0-1.27-.32-1.27-1.61V41.23h.67v2c0,.7.21,1.17.82,1.17a1,1,0,0,0,.88-.61,1.21,1.21,0,0,0,.06-.34V41.23h.66Z"/><path class="cls-1" d="M125.39,41.23c0,.27,0,.56,0,1v2.13a2.12,2.12,0,0,1-.52,1.67,2,2,0,0,1-1.33.44,2.42,2.42,0,0,1-1.22-.3l.16-.51a2.08,2.08,0,0,0,1.08.29c.68,0,1.18-.36,1.18-1.28v-.41h0a1.29,1.29,0,0,1-1.16.61A1.64,1.64,0,0,1,122,43.09a1.75,1.75,0,0,1,1.65-1.94,1.21,1.21,0,0,1,1.14.63h0l0-.55Zm-.69,1.45a1,1,0,0,0,0-.31,1,1,0,0,0-.93-.7c-.63,0-1.09.54-1.09,1.39s.36,1.31,1.08,1.31a1,1,0,0,0,.93-.68,1.06,1.06,0,0,0,0-.35Z"/><path class="cls-1" d="M129.63,41.23c0,.27,0,.56,0,1v2.13a2.12,2.12,0,0,1-.52,1.67,2,2,0,0,1-1.34.44,2.45,2.45,0,0,1-1.22-.3l.17-.51a2.06,2.06,0,0,0,1.07.29c.69,0,1.19-.36,1.19-1.28v-.41h0a1.31,1.31,0,0,1-1.17.61,1.64,1.64,0,0,1-1.56-1.79,1.76,1.76,0,0,1,1.66-1.94,1.22,1.22,0,0,1,1.14.63h0l0-.55Zm-.69,1.45a1,1,0,0,0,0-.31,1,1,0,0,0-.93-.7c-.64,0-1.09.54-1.09,1.39s.36,1.31,1.08,1.31a1,1,0,0,0,.93-.68,1.41,1.41,0,0,0,.05-.35Z"/><path class="cls-1" d="M131.4,40.2a.41.41,0,1,1-.82,0,.41.41,0,0,1,.41-.42A.4.4,0,0,1,131.4,40.2Zm-.74,4.7V41.23h.67V44.9Z"/><path class="cls-1" d="M132.43,42.22c0-.38,0-.69,0-1H133l0,.61h0a1.34,1.34,0,0,1,1.21-.69c.51,0,1.29.3,1.29,1.56V44.9h-.66V42.78c0-.59-.22-1.08-.85-1.08a.94.94,0,0,0-.89.68,1,1,0,0,0-.05.31V44.9h-.67Z"/><path class="cls-1" d="M139.8,41.23c0,.27,0,.56,0,1v2.13a2.12,2.12,0,0,1-.52,1.67,2,2,0,0,1-1.34.44,2.45,2.45,0,0,1-1.22-.3l.17-.51a2.08,2.08,0,0,0,1.08.29c.68,0,1.18-.36,1.18-1.28v-.41h0a1.3,1.3,0,0,1-1.16.61,1.64,1.64,0,0,1-1.56-1.79A1.75,1.75,0,0,1,138,41.15a1.22,1.22,0,0,1,1.14.63h0l0-.55Zm-.69,1.45a1,1,0,0,0,0-.31,1,1,0,0,0-.93-.7c-.64,0-1.09.54-1.09,1.39s.36,1.31,1.08,1.31a1,1,0,0,0,.93-.68,1.06,1.06,0,0,0,.05-.35Z"/></g></g></svg>