<?xml version="1.0" encoding="utf-8"?>
<!-- Generator: Adobe Illustrator 25.1.0, SVG Export Plug-In . SVG Version: 6.00 Build 0)  -->
<svg version="1.1" id="Layer_1" xmlns="http://www.w3.org/2000/svg" xmlns:xlink="http://www.w3.org/1999/xlink" x="0px" y="0px"
	 viewBox="0 0 991.7 436.1" style="enable-background:new 0 0 991.7 436.1;" xml:space="preserve">
<style type="text/css">
	.st0{fill:#01222C;}
	.st1{fill:#FFFFFF;}
</style>
<g id="Layer_2_1_">
	<g id="Layer_1-2">
		<rect x="-3" class="st0" width="996.7" height="441.1"/>
		<path class="st1" d="M742.7,91.6c0.4-0.4,0.7-0.9,0.9-1.4C743.8,89.4,743.4,90.2,742.7,91.6z"/>
		<path class="st1" d="M83.4,290.8c0.2-0.1,0.3-0.3,0.4-0.5C83.8,290,83.7,290.3,83.4,290.8z"/>
		<path class="st1" d="M466.6,230.5c-0.1-0.3-0.2-0.6-0.4-0.9C465.9,229.2,466.2,229.7,466.6,230.5z"/>
		<path class="st1" d="M108.6,300.5c0-0.1-0.1-0.2-0.2-0.4C108.3,300,108.4,300.2,108.6,300.5z"/>
		<path class="st1" d="M297.9,262.9c0.3-0.1,0.7-0.3,0.9-0.6C299.2,261.9,298.8,262.3,297.9,262.9z"/>
		<path class="st1" d="M394.8,188.5c0.1,0,0.2-0.1,0.2-0.1C395.1,188.3,395,188.4,394.8,188.5z"/>
		<path class="st1" d="M358.5,215.8c1.6,1.8,3.5,3.3,5.6,4.4c2.5,1.4,5.3,2.3,8.2,2.5c2.3,0.2,4.6,0.1,6.8-0.4
			c1.3-0.3,2.6-0.7,3.9-1.1c2.1-0.8,4.1-1.9,5.9-3.2c2.1-1.6,3.8-3.5,5.2-5.7c1-1.7,1.8-3.4,2.4-5.3c0.8-2.1,1-4.4,0.7-6.7
			c-0.6-2.7-1.7-5.3-3.3-7.6c1.1,0.3,2.2,0.7,3.3,1.2c1.1,0.4,2.1-1.1,2.4-1.5s-0.1-1.6-0.1-1.6c-0.3-0.5-0.6-0.8-1-1.1
			c-0.6-0.4-1.7,0.7-1.1,0.7s0,0,0.6,0s0.9,0.6,0.4,1.5s0,0-0.7,0.6s-0.4,0-1.8-0.3c-0.5-0.1-1.7-0.4-2.8-0.7
			c-0.6-0.8-1.3-1.5-2.1-2.2c0.1-0.1,0.1-0.2,0.2-0.3c0.6,0.1,1.1,0.3,1.7,0.5c0.4,0.2,1.4-0.5,1.9-0.9c-1.1,0.4-2.3,0.4-3.4,0.2
			c0.6-0.8,1.4-1.5,2.2-2.1c0.9-0.5,1.6-1.2,2.1-2c0.6-1,1.2-1.8,1.6-2.7s1.2-2.6,0.4-3.6c0,0-0.3,2.6-1.4,3.6
			c-1.4,1.1-2.7,2.3-3.9,3.6c-0.7,0.9-1.2,2.1-2.5,2.2l0,0c-0.2-0.2-0.4-0.3-0.6-0.5c0-0.1,0.1-0.2,0.1-0.2c1-1.8,2.1-3.5,3.3-5.2
			c0.3-0.4,1.1-0.3,1.3-0.8s-1.6-1.3-1.8-1l-0.6,1c-0.2,0.4-0.3,0.4-1.3,0.9c-1.4,1.2-2.6,2.6-3.7,4.1h-0.1l-0.7-1
			c-0.4-0.6-0.8-1.2-1.3-1.9c-1.4-2-1.3-2.1-3.1-3.3c-1-0.7-2-1.3-3.1-1.8c-1.8-1-3.9-2.3-4.7-2l2,1c0.5,0,1.4,0.8,2.4,1.4
			s2.7,1.3,3.2,2s0.7,0.6,1.3,1.4c0.4,0.6,2.4,2.7,3.6,3.9l-0.4-0.2c-0.4-0.6-0.9-1-1.5-1.4c-1.1-0.4-2.2-0.8-3.3-1
			c-0.4,0.1,1.2,0.7,1.9,1.1c-1.2-0.3-2.3-0.8-3.4-1.5c-3.8-2.4-9.4-1.6-13.1,0.1c-4,1.9-7.4,4.9-9.7,8.7c-1.6,2.6-2.6,5.6-3,8.6
			C353,205.8,354.7,211.5,358.5,215.8L358.5,215.8z"/>
		<path class="st1" d="M317.5,255.2c-0.1-0.3-0.2-0.5-0.3-0.7C316.9,254.1,317.1,254.5,317.5,255.2z"/>
		<path class="st1" d="M818.1,45.6c-0.1-0.3-0.2-0.6-0.4-0.9C817.3,44.3,817.6,44.7,818.1,45.6z"/>
		<path class="st1" d="M992.9,93.1c-6.2-4.4-9.4-8.2-16.4-10.8c-8.6-3.6-17.7-5.5-26.9-4.8c-4.2,0.4-8.3,1.2-12.4,2.4
			c-0.7-1.3-1.4-2.6-2.2-3.8c-5.2-8.4-12-15.6-20-21.3c-6.1-4.4-12.8-8.1-19.9-10.8c-8.6-3.6-17.7-5.5-26.9-4.8
			c-10,0.8-23.5,5.6-33.4,10.3c1.8-4.1,5.2-9.1,7-12.1c2.3-3.9-3.1-8.1-4.4-9.5s-6.5-0.2-6.5-0.2c-2,0.9-3.9,2.1-5.4,3.7
			c-1.9,2.2,1.8,6.8,2,4.6s0,0,0.6-2.3s2.9-3.1,6.3-1.1s0,0,1.9,2.9s-0.5,1.7-2.6,6.8c-0.8,2-2.8,6.2-4.9,10.5
			c-3.6,2.2-7.1,4.6-10.4,7.3c-0.4-0.2-0.8-0.5-1.1-0.8c0.8-2.2,1.9-4.2,3.1-6.2c1-1.5-1.3-5.5-2.4-7.4c0.7,2.6,0.6,9.3-1.5,13
			c-2.8-2.7-5.1-5.7-6.9-9.1c-2.2-4.1-3.2-6-6.9-8.7s-6.5-5-9.9-7s-9.6-5.3-14.2-2.6c0,0,10.5,1.9,13.6,6.5s8.9,13,12,16
			s7.5,5.3,7.3,10.3l0,0c-0.8,0.6-1.7,1.3-2.4,2l-1-0.5c-4.4-2.3-17.6-12.5-19-13.9s-0.4-4.2-2.2-5.1s-6.6,5.6-5.2,6.6l3.5,2.5
			c1.3,1,1.4,1.4,2.7,5.1c0.8,2.3,8.5,9.9,14.2,15.4l-0.3,0.3l-4.4,2.3l-8.7,4.5c-5.3,2.8-7.7,3.7-9.9,5.3c-2.5-1-5-1.6-7.7-1.8
			c-5.1-0.2-8,9.4-4.6,7.2s0,0,4-1.6c1.3-0.6,2.8-0.7,4.2-0.2c-0.5,0.6-1.1,1.1-1.7,1.8c-6.1,6.6-4.1,4.8-9.5,11.3l-3.3,4
			c-4.3,1-10.4,2.3-16.7,3.6c-6.9-2.4-13.9-4.3-21.1-5.8c-0.1-0.8-0.1-1.5,0-2.3c4-1.2,8-1.9,12.2-2.3c3.2-0.2,6.6-7.3,8.2-10.7
			c-3,3.5-12.9,10.3-20.2,11.3c1-6.4,3-12.5,6-18.2c3.7-7,5.4-10.2,5.4-17.8s0.6-13.5,0-19.9s-2.3-17.8-10.8-21c0,0,8,15.5,4.6,24.2
			s-9.9,24.6-11,31.6s0.1,15.2-7.4,20l0,0c-1.8-0.4-3.6-0.8-5.5-1c-0.1-0.6-0.2-1.2-0.3-1.7c-1.1-8.1,0-35.5,0.6-38.8
			s5.7-4.8,5.1-8.1s-14.8-2.7-14.8,0v7c0,2.7-0.6,3.2-4.6,8.6c-2.5,3.3-5.6,21.1-7.7,34h-0.7l-7.9-3.3c-4.4-1.9-9.7-4.1-15.4-6.5
			c-16.3-6.9-15.9-8-31.7-9.1s-11.2-0.4-26-0.7s-32.5-1-36.7,2.9l16.2-0.1c3.5-1.5,11.8,0.2,20.1,0.7s21.5-1.1,27.7,1.4
			s6.6,1.2,13.5,3.9c4.8,1.9,25.1,7.5,37,10.8h-2.9c-6.1-2.1-12-3.7-14.2-3.4c-3.7,0.5-21.9,2.7-24.2,4.3
			c-1.9,1.4,10.2,0.4,15.9,0.8c-7.9,1.3-14.5,2.7-26.5,1.9c-32.5-2.1-64.3,19.3-80.8,40.6c-17.2,22.1-27.3,48.9-27.3,77.8
			c0,0,0,0.1,0,0.2c-0.5,0-0.9,0-1.4,0.1c-10,0.8-23.5,5.6-33.4,10.3c1.8-4.1,5.2-9.1,7-12.1c2.3-3.9-3.1-8.1-4.4-9.4
			s-6.5-0.2-6.5-0.2c-2,0.9-3.8,2.1-5.4,3.7c-1.9,2.2,1.8,6.8,2,4.6s0,0,0.6-2.3s2.9-3.1,6.3-1.1s0,0,1.9,2.9s-0.5,1.6-2.6,6.8
			c-0.8,2-2.8,6.2-4.9,10.5c-3.6,2.2-7,4.6-10.3,7.2c-0.4-0.2-0.8-0.5-1.1-0.8c0.8-2.2,1.9-4.2,3.1-6.2c1-1.5-1.3-5.5-2.4-7.4
			c0.7,2.6,0.6,9.3-1.5,12.9c-2.8-2.7-5.1-5.7-6.9-9.1c-2.2-4.1-3.2-6-6.9-8.7s-6.5-5-9.9-7s-9.6-5.2-14.2-2.6
			c0,0,10.5,1.9,13.6,6.5s8.9,13,12,16s7.6,5.3,7.3,10.3l0,0c-0.8,0.6-1.7,1.3-2.4,2.1c-0.3-0.2-0.7-0.3-1-0.5
			c-4.4-2.3-17.6-12.5-19-13.9s-0.4-4.2-2.2-5.1s-6.6,5.6-5.2,6.6l3.5,2.5c1.3,0.9,1.4,1.4,2.7,5c0.8,2.3,8.5,9.9,14.2,15.4
			c-0.1,0.1-0.2,0.2-0.3,0.3l-4.4,2.3c-2.5,1.3-5.4,2.9-8.7,4.5c-9.2,4.8-9.6,4.2-15.7,10.8c-3.4,3.7-4.3,4.8-5.4,6.1
			c-0.7-1.1-1.6-2.1-2.6-2.8c-0.4-0.8-0.8-1.6-1.3-2.3c-4.2-6.8-9.7-12.6-16.2-17.2c-5-3.6-10.4-6.5-16.1-8.7
			c-6.8-3-14.3-4.3-21.7-3.9c-8,0.6-19,4.5-27,8.4c1.5-3.3,4.2-7.4,5.6-9.8c1.8-3.2-2.5-6.6-3.6-7.6s-5.2-0.2-5.2-0.2
			c-1.6,0.7-3.1,1.7-4.4,3c-1.5,1.8,1.5,5.5,1.6,3.7s0,0,0.5-1.9s2.3-2.5,5.1-0.9s0,0,1.5,2.3s-0.4,1.3-2.1,5.5
			c-0.7,1.6-2.3,5-4,8.5c-2.9,1.8-5.7,3.7-8.3,5.9c-0.3-0.2-0.6-0.4-0.9-0.7c0.7-1.7,1.5-3.4,2.5-5c0.8-1.2-1-4.5-1.9-6
			c0.6,2.1,0.5,7.5-1.2,10.5c-2.2-2.1-4.1-4.6-5.6-7.4c-1.8-3.3-2.6-4.9-5.6-7c-1.6-1.1-3-2.2-4.3-3.2c0.4-0.5,0.7-1,1.1-1.6
			c2.6-4.3,4.9-7.5,6.9-11.3s5-10.7,1.7-14.9c0,0-1.3,11-6,14.9c-2.7,2.3-6.7,5.7-10.2,8.8c-2.7-1.2-6-2.1-8.6-0.6
			c2.4,0.5,4.7,1.2,6.9,2.2c-1.6,1.4-3.1,3-4.5,4.6c-3,3.6-5.2,8.6-10.6,9.3l0,0c-0.8-0.8-1.6-1.5-2.5-2.1c0.2-0.4,0.3-0.7,0.5-1
			c2.2-4.9,12.3-20.1,13.7-21.8s4.6-1.2,5.4-3.1s-6.6-5.6-7.6-4.1s-1.5,2.4-2.4,4s-1.4,1.7-5.3,3.6c-2.4,1.1-10.1,10.3-15.6,17
			l-0.4-0.2l-2.9-4.1c-1.6-2.3-3.5-5-5.6-8c-5.9-8.4-5.4-8.9-13-13.9s-5.6-3.3-13-7.6s-16.2-9.6-19.7-8.6l8.3,4.4
			c2.3,0.1,6,3.4,10,5.9s11.3,5.4,13.6,8.5s3,2.5,5.6,6c1.8,2.4,10.2,11.2,15.2,16.3l-2.2-1c-2.4-2.9-4.9-5.4-6.1-5.9
			c-2-0.7-12.1-4.6-13.8-4.3c-1.5,0.2,5.1,3.1,7.9,4.9c-4.5-1.5-8.4-2.5-14.2-6.3c-15.8-10.2-39.5-6.9-55.2,0.5
			c-16.9,7.9-31,20.6-40.8,36.4c-4.3,7.1-7.6,14.7-9.9,22.6c-3.8,0.3-9,2.2-12.7,4c0.8-1.6,1.7-3.2,2.7-4.7c0.9-1.5-1.2-3.2-1.7-3.7
			s-2.5-0.1-2.5-0.1c-0.8,0.3-1.5,0.8-2.1,1.4c-0.7,0.9,0.7,2.6,0.8,1.8s0,0,0.2-0.9s1.1-1.2,2.4-0.4s0,0,0.7,1.1s-0.2,0.6-1,2.6
			c-0.3,0.8-1.1,2.4-1.9,4.1c-1.4,0.8-2.7,1.8-4,2.8c-0.2-0.1-0.3-0.2-0.4-0.3c0.3-0.8,0.7-1.6,1.2-2.4c0.4-0.6-0.5-2.1-0.9-2.9
			c0.3,1.7,0.1,3.4-0.6,5c-1.1-1-2-2.2-2.7-3.5c-0.5-1.4-1.5-2.5-2.7-3.4c-1.4-1-2.5-1.9-3.8-2.7h-0.1c0.1-0.4,0.2-0.7,0.3-0.9
			c0.3-1-1.8-3.3-1.8-3.3c-1.1-0.7-2.4-1.3-3.7-1.5c-1.8-0.3-3.2,3-1.9,2.4s0,0,1.5-0.4s2.5,0.4,2.5,2.5c-0.8-0.2-1.6,0-2.2,0.3
			c0.8,0.2,1.5,0.4,2.2,0.6c0,1.1-0.1-0.4-1,1.1c-1,1.8-1.1,0.3-4.6,0.8c-1.4,0.2-4.3,0.5-7.3,0.8c-2.3-1.1-4.7-2.1-7.2-2.9
			c0-0.3,0-0.5,0.1-0.8c1.4-0.3,2.9-0.4,4.4-0.4c1.1,0.1,2.7-2.3,3.4-3.4c-2.2,1.7-4.8,2.9-7.6,3.2c0.6-2.2,1.6-4.3,2.9-6.2
			c1.6-2.3,2.4-3.4,2.7-6.1s0.8-4.7,0.9-7s0-6.4-2.9-7.8c0,0,2.1,5.8,0.5,8.7s-4.5,8.4-5.2,10.8s-0.6,5.3-3.5,6.8l0,0
			c-0.6-0.2-1.2-0.4-1.9-0.6c0-0.2,0-0.4,0-0.6c-0.1-2.9,1.6-12.5,1.9-13.6s2.2-1.5,2.2-2.6s-5.1-1.5-5.2-0.6l-0.3,2.5
			c-0.1,1-0.3,1.1-2,2.9c-1,1.1-2.9,7.2-4.2,11.7h-0.3c-0.7-0.4-1.6-0.9-2.7-1.5l-5.2-2.9c-5.4-3.1-5.3-3.4-10.8-4.5
			s-3.9-0.6-9.1-1.3s-11.4-1.6-13.1-0.4l5.7,0.6c1.3-0.4,4.2,0.5,7,1s7.6,0.5,9.7,1.6s2.3,0.7,4.6,1.9c1.6,0.8,8.5,3.6,12.6,5.2
			l-1-0.1c-1.5-0.9-3.2-1.5-4.9-1.8c-1.3,0-7.8,0.1-8.7,0.6s3.6,0.5,5.6,0.9c-3.1,0.3-6.3,0.2-9.4-0.4c-11.3-2-23.5,4.3-30.3,11.1
			c-7.1,7.1-11.7,16.4-13,26.3c-0.4,3.5-0.4,7.1,0,10.6h-0.3v102h994.7V93.1z M101.7,313.1L101.7,313.1L101.7,313.1L101.7,313.1z
			 M295,280.6c1.7,0.4,3.4,1,5.1,1.6l-3.1,1.6C296.3,282.7,295.6,281.7,295,280.6z M297.7,285.1l3.5-2.5l0.3,0.1
			c-1.3,0.8-2.5,1.7-3.7,2.6C297.8,285.3,297.8,285.2,297.7,285.1L297.7,285.1z M432.5,286.9c-2.3,2.5-4.2,5.3-5.7,8.3l0.2-0.4
			c1.8-3.4,3.9-6.7,6.1-9.8c0.4-0.5,1.2-0.6,1.8-0.8C434.2,285,433.4,285.9,432.5,286.9L432.5,286.9z M420.1,291.9
			c-0.7-1-1.7-1.9-2.7-2.6l-0.6-0.2c-0.1-0.3-0.3-0.6-0.4-0.9c0.1-0.1,0.1-0.2,0.2-0.3c1.4,1.5,3,3.2,4.2,4.4L420.1,291.9z
			 M756.3,116.9c6.5-1.4,14.5-2.1,20.2-2.7c-1.6,4.2-2.7,8.5-3.2,13c-6-3.5-12.1-6.7-17.8-9.3L756.3,116.9z M787.3,95.8
			c1.3-1.4,3.5-4.6,5-6.2c-1.3,2.6-2.8,5.1-4.4,7.5C787.7,96.6,787.5,96.2,787.3,95.8L787.3,95.8z M800.5,77.7l-1,1.3
			c-3.2,2-6.1,4-6.7,5.1c-0.9,1.5-4.7,7.9-6,10.9c-1.3-1.7-2.9-3.3-4.5-4.7C785,88.6,794.7,81.8,800.5,77.7z M764.9,106.6
			c3.1-3.5,7-9.9,10.5-11.8c0.6-0.3,1-0.6,1.4-0.9c1,1.6,1.5,3.4,1.6,5.2c0.6,6.5,0,0-2.3,5.4s-2.8,1.1-12.5,3.7l-0.3,0.1
			C763.8,107.8,764.4,107.2,764.9,106.6L764.9,106.6z M424,279.8c3.4-1.9,2.9-2.5,6.7-4.6c2.6-1.5,12.5-8.5,18.4-12.6l-1,1.3
			c-3.2,2-6.1,4-6.7,5.1c-1,1.8-6.4,10.6-6.4,12.2c0,1.4,3.8-4.4,6-6.8c-1.5,3.1-3.3,6.1-5.4,8.9c-0.2-0.9-3-2.2-3.4-1.6l-1.1,1.8
			c-0.4,0.7-0.6,0.8-2.4,1.6c-1.1,0.5-4.5,4.7-7,7.7l-0.2-0.1c-0.4-0.5-0.8-1.1-1.3-1.8c-0.7-1-1.6-2.2-2.5-3.6l-0.3-0.5
			C419.5,283.9,421.8,281,424,279.8z M306.3,261.7c2,1.9,4.6,3.5,5.5,6.1c-2.3,0.6-4.5,3.2-2.6,3c2.2-0.2,0.5-0.1,1.9,0.1
			c-0.3,0.3-0.6,0.5-0.9,0.8l-0.8-0.4c-4.1-2.6-8-5.3-11.7-8.3l0.2-0.1l-0.2,0.1c-1.8-1.4-3.2-2.5-3.6-2.9c-1.1-1.1-0.3-3.4-1.8-4.1
			c-0.1-0.1-0.3-0.1-0.4-0.1c0.4-0.3,0.8-0.6,1.2-0.8c1.8-1.2,3.6-2.5,5.2-3.9C300.8,254.9,304.3,259.8,306.3,261.7z M289.3,257.9
			c-1.1,1.4-1.8,2.9-1.2,3.3l2.8,2c0.4,0.2,0.8,0.6,1,1c-2.7,0.4-5.5,0.2-8.2-0.5C285.4,261.6,287.3,259.7,289.3,257.9L289.3,257.9z
			 M283,264.6c2.4,0.4,4.7,1.1,7,2c0.9,0.2,1.9,0.1,2.7-0.4l0.4,1.1c0.6,1.6,5.5,6.6,9.8,10.8l0,0c-2.3-0.5-7-1.7-11.9-3.1
			c-2.7-3.3-5.6-6.3-8.7-9.1C282.4,265.5,282.7,265,283,264.6L283,264.6z M95.2,300c1.7,0,2.6-1.5,3.2-2.9c0.1,0.1,0.2,0.2,0.2,0.3
			c1.4,2.2,2.9,4.2,4.6,6.2c1.2,1.1,2.9,2,2.8,4l0,0c-0.3,0.2-0.6,0.5-0.9,0.8l-0.4-0.2c-2.6-1.6-5-3.4-7.4-5.4
			c-0.5-0.5-0.2-1.6-0.8-2s-2.5,2.2-2,2.5l1.3,1c0.5,0.4,0.5,0.5,1,2c0.3,0.9,3.3,3.8,5.5,6l-0.1,0.1l-0.8,0.4
			c-3.6-4.5-9.9-9.3-15.2-12.5C89.2,299.9,93,300.1,95.2,300z"/>
	</g>
</g>
</svg>
