<svg xmlns="http://www.w3.org/2000/svg" viewBox="0 0 434.95 183.84"><defs><style>.cls-1{fill:#fff;}</style></defs><g id="Layer_2" data-name="Layer 2"><g id="Layer_1-2" data-name="Layer 1"><path class="cls-1" d="M325.58,29.06a1.65,1.65,0,0,0,.38-.63C326,28.07,325.88,28.41,325.58,29.06Z"/><path class="cls-1" d="M37.29,117.27a.5.5,0,0,0,.16-.21C37.5,116.93,37.43,117.05,37.29,117.27Z"/><path class="cls-1" d="M204.87,90.56a1,1,0,0,0-.18-.39C204.54,90,204.66,90.2,204.87,90.56Z"/><path class="cls-1" d="M48.34,121.58a.62.62,0,0,0-.07-.16C48.21,121.36,48.25,121.44,48.34,121.58Z"/><path class="cls-1" d="M131.1,104.92a1.4,1.4,0,0,0,.41-.25C131.67,104.48,131.47,104.63,131.1,104.92Z"/><path class="cls-1" d="M173.44,72a.23.23,0,0,0,.09-.06S173.53,71.9,173.44,72Z"/><path class="cls-1" d="M157.61,84a9.15,9.15,0,0,0,2.45,2,9.6,9.6,0,0,0,6.6,1,10.21,10.21,0,0,0,1.69-.5A9.65,9.65,0,0,0,170.94,85a9.32,9.32,0,0,0,2.25-2.54,10.6,10.6,0,0,0,1.07-2.33,6.18,6.18,0,0,0,.32-3,10.07,10.07,0,0,0-1.45-3.37,12.26,12.26,0,0,1,1.43.51c.47.17.9-.49,1-.65s0-.69,0-.69a1.61,1.61,0,0,0-.47-.51c-.26-.16-.76.32-.5.29s0,0,.27,0,.38.24.18.65,0,0-.32.25-.19,0-.8-.15l-1.23-.32a9.05,9.05,0,0,0-.91-1l.08-.13a3.7,3.7,0,0,1,.73.21c.18.08.62-.24.83-.39a2.72,2.72,0,0,1-1.49.08,4.71,4.71,0,0,1,1-.91,2.49,2.49,0,0,0,.92-.9c.27-.45.52-.79.72-1.19s.52-1.13.18-1.57a3,3,0,0,1-.63,1.57,18.24,18.24,0,0,0-1.72,1.59c-.31.38-.54.9-1.11,1h0a2.8,2.8,0,0,0-.25-.22.37.37,0,0,1,.05-.11,21.87,21.87,0,0,1,1.42-2.3c.14-.17.48-.12.56-.33s-.69-.59-.79-.43l-.25.42c-.09.16-.14.17-.55.38a11.91,11.91,0,0,0-1.63,1.8l0,0-.3-.43-.58-.84c-.62-.89-.56-.94-1.36-1.47a14.11,14.11,0,0,0-1.36-.8c-.77-.45-1.69-1-2.05-.9l.86.46c.24,0,.62.36,1,.63a6.4,6.4,0,0,1,1.42.89c.24.33.31.27.58.63s1.06,1.18,1.58,1.72l-.15-.08a2.29,2.29,0,0,0-.64-.62,7.91,7.91,0,0,0-1.44-.45c-.15,0,.53.32.82.51a5.2,5.2,0,0,1-1.48-.66c-1.65-1.07-4.11-.73-5.75.06a10,10,0,0,0-4.24,3.84,9.56,9.56,0,0,0-1.31,3.83,9.2,9.2,0,0,0,.52,4.17A8.77,8.77,0,0,0,157.61,84Z"/><path class="cls-1" d="M139.68,101.49a.88.88,0,0,0-.14-.32C139.42,101,139.51,101.2,139.68,101.49Z"/><path class="cls-1" d="M358.52,8.66a.94.94,0,0,0-.18-.4C358.19,8.1,358.31,8.29,358.52,8.66Z"/><path class="cls-1" d="M435,29.7c-2.72-1.95-4.12-3.63-7.18-4.78A25.25,25.25,0,0,0,416,22.79a28.84,28.84,0,0,0-5.41,1.05c-.3-.57-.61-1.13-.95-1.68a32.09,32.09,0,0,0-8.75-9.44,37.93,37.93,0,0,0-8.7-4.78,25.27,25.27,0,0,0-11.75-2.13c-4.34.34-10.29,2.47-14.6,4.58A56.17,56.17,0,0,1,368.92,5c1-1.73-1.37-3.61-1.93-4.19s-2.83-.11-2.83-.11a7.52,7.52,0,0,0-2.36,1.63c-.83,1,.8,3,.86,2s0,0,.26-1,1.26-1.37,2.75-.47,0,0,.82,1.28-.2.73-1.14,3c-.37.9-1.23,2.74-2.14,4.65a41.36,41.36,0,0,0-4.51,3.22,4.75,4.75,0,0,1-.5-.36,15.12,15.12,0,0,1,1.37-2.75c.45-.65-.57-2.44-1.05-3.28a9.9,9.9,0,0,1-.66,5.73,16.47,16.47,0,0,1-3-4,8.73,8.73,0,0,0-3-3.84c-1.64-1.17-2.84-2.21-4.33-3.11s-4.2-2.32-6.22-1.15c0,0,4.59.85,5.94,2.88a64.7,64.7,0,0,0,5.24,7.09c1.35,1.32,3.31,2.35,3.2,4.56h0a9.81,9.81,0,0,0-1.06.92l-.42-.22a80.56,80.56,0,0,1-8.32-6.16c-.62-.62-.18-1.88-1-2.27S342,11.55,342.59,12l1.52,1.1c.58.42.61.61,1.16,2.24.35,1,3.71,4.39,6.2,6.8l-.12.15-1.94,1-3.79,2a40.13,40.13,0,0,0-4.32,2.37,11,11,0,0,0-3.36-.8c-2.25-.09-3.49,4.15-2,3.19s0,0,1.75-.71a2.33,2.33,0,0,1,1.84-.07l-.76.8c-2.66,2.91-1.8,2.14-4.15,5l-1.45,1.76c-1.87.44-4.55,1-7.31,1.6a72.7,72.7,0,0,0-9.2-2.58,5.78,5.78,0,0,1,0-1,28.14,28.14,0,0,1,5.31-1c1.39-.09,2.91-3.24,3.61-4.74-1.31,1.56-5.64,4.56-8.85,5A27,27,0,0,1,319.35,26c1.63-3.11,2.37-4.54,2.37-7.88s.25-6,0-8.83-1-7.87-4.74-9.3c0,0,3.5,6.86,2,10.7s-4.24,11-4.74,14.11,0,6.72-3.22,8.85h0a20.88,20.88,0,0,0-2.4-.45c0-.26-.08-.52-.12-.76-.5-3.58,0-15.75.25-17.18s2.5-2.15,2.25-3.58-6.49-1.19-6.49,0v3.1c0,1.2-.25,1.43-2,3.82-1.09,1.48-2.47,9.34-3.35,15.07h-.32l-3.47-1.48c-1.94-.82-4.25-1.8-6.75-2.88-7.11-3-7-3.53-13.84-4s-4.9-.17-11.38-.31-14.19-.45-16.05,1.29l7.06-.07c1.51-.65,5.19.1,8.77.31s9.38-.48,12.11.62,2.9.54,5.92,1.72c2.09.83,11,3.32,16.17,4.77l-1.26,0c-2.68-.94-5.28-1.64-6.23-1.5-1.6.24-9.58,1.2-10.58,1.91-.85.61,4.46.19,7,.34a43,43,0,0,1-11.6.86c-14.19-.92-28.1,8.55-35.33,18a56.29,56.29,0,0,0-11.93,34.45s0,0,0,.08l-.61,0c-4.35.34-10.3,2.47-14.61,4.57a57.18,57.18,0,0,1,3.05-5.36c1-1.74-1.37-3.61-1.93-4.19s-2.83-.11-2.83-.11a7.52,7.52,0,0,0-2.36,1.63c-.83,1,.8,3,.86,2s0,0,.26-1,1.26-1.37,2.75-.47,0,0,.82,1.28-.2.73-1.14,3c-.37.91-1.23,2.75-2.14,4.66A39.93,39.93,0,0,0,205.05,97a4.75,4.75,0,0,1-.5-.36,15,15,0,0,1,1.37-2.74c.45-.65-.57-2.44-1-3.29a9.92,9.92,0,0,1-.66,5.74,16.47,16.47,0,0,1-3-4,8.73,8.73,0,0,0-3-3.84c-1.64-1.18-2.84-2.21-4.33-3.11s-4.2-2.33-6.22-1.15c0,0,4.59.85,5.94,2.87a63.93,63.93,0,0,0,5.24,7.1c1.35,1.31,3.31,2.35,3.2,4.56h0a10.92,10.92,0,0,0-1.06.91l-.42-.21a79,79,0,0,1-8.32-6.17c-.62-.61-.18-1.87-1-2.26s-2.87,2.48-2.28,2.9l1.52,1.1c.58.42.61.61,1.16,2.23.35,1,3.71,4.4,6.2,6.81l-.12.14-1.94,1-3.79,2c-4,2.11-4.18,1.87-6.85,4.78-1.5,1.64-1.88,2.11-2.35,2.72a4.49,4.49,0,0,0-1.15-1.26c-.19-.35-.36-.7-.57-1a26.09,26.09,0,0,0-7.07-7.63,30.73,30.73,0,0,0-7-3.87,20.38,20.38,0,0,0-9.49-1.72c-3.52.28-8.32,2-11.81,3.7a46,46,0,0,1,2.46-4.34c.81-1.4-1.11-2.92-1.56-3.38s-2.29-.09-2.29-.09a6,6,0,0,0-1.91,1.31c-.67.79.65,2.45.7,1.63s0,0,.21-.83,1-1.11,2.23-.39,0,0,.65,1-.16.59-.92,2.46c-.29.73-1,2.22-1.73,3.76a33.19,33.19,0,0,0-3.64,2.6,4.49,4.49,0,0,1-.41-.29,12.22,12.22,0,0,1,1.11-2.22c.36-.53-.46-2-.85-2.66a7.93,7.93,0,0,1-.53,4.64,13.35,13.35,0,0,1-2.45-3.25,7,7,0,0,0-2.45-3.1c-.69-.5-1.29-1-1.87-1.41.15-.22.31-.45.47-.72,1.14-1.89,2.16-3.3,3-5s2.17-4.74.74-6.6c0,0-.55,4.86-2.62,6.62-1.19,1-2.95,2.5-4.48,3.91-1.18-.54-2.62-.94-3.78-.26a14.43,14.43,0,0,1,3,1,23.18,23.18,0,0,0-2,2c-1.31,1.61-2.27,3.81-4.66,4.1h0a9.92,9.92,0,0,0-1.07-.93c.07-.16.13-.32.2-.47a94.5,94.5,0,0,1,6-9.64c.62-.74,2-.52,2.37-1.4s-2.9-2.49-3.31-1.82l-1.06,1.76c-.4.67-.61.74-2.32,1.59-1.06.54-4.43,4.6-6.83,7.59l-.16-.1c-.35-.49-.78-1.1-1.27-1.81l-2.47-3.52c-2.58-3.73-2.35-4-5.69-6.17a64.63,64.63,0,0,0-5.7-3.37c-3.26-1.89-7.09-4.24-8.63-3.78l3.62,2c1,0,2.62,1.51,4.38,2.63s4.94,2.37,6,3.76,1.3,1.12,2.44,2.63c.78,1.06,4.46,5,6.63,7.25l-.64-.37a10.42,10.42,0,0,0-2.67-2.6c-.9-.31-5.3-2-6-1.89s2.21,1.36,3.44,2.15A22.74,22.74,0,0,1,103,94.1c-6.93-4.51-17.25-3.06-24.14.23a41.67,41.67,0,0,0-17.82,16.14,40.5,40.5,0,0,0-4.32,10,18,18,0,0,0-5.57,1.76,23.39,23.39,0,0,1,1.18-2.08c.39-.67-.53-1.4-.74-1.62s-1.1,0-1.1,0a3,3,0,0,0-.91.63c-.33.38.31,1.18.33.79s0,0,.1-.4.49-.53,1.07-.19,0,0,.31.5-.08.28-.44,1.17c-.14.35-.48,1.07-.83,1.81a14.71,14.71,0,0,0-1.74,1.24,1.21,1.21,0,0,1-.2-.14,6.44,6.44,0,0,1,.53-1.06c.18-.25-.22-.95-.4-1.27a3.88,3.88,0,0,1-.26,2.22,6.38,6.38,0,0,1-1.17-1.56,3.46,3.46,0,0,0-1.17-1.49c-.64-.45-1.1-.85-1.68-1.2l0,0c0-.17.08-.31.11-.41.15-.45-.8-1.45-.8-1.45a4.65,4.65,0,0,0-1.61-.68c-.79-.12-1.41,1.32-.84,1s0,0,.65-.18,1.08.19,1.09,1.11a1.54,1.54,0,0,0-1,.14,7.27,7.27,0,0,1,1,.28c0,.5,0-.2-.44.5s-.46.12-2,.35c-.6.1-1.88.23-3.2.35a26.51,26.51,0,0,0-3.13-1.28,2.27,2.27,0,0,1,0-.35,9.89,9.89,0,0,1,1.91-.16c.5,0,1.17-1,1.48-1.52A6.68,6.68,0,0,1,34,118.69a9.71,9.71,0,0,1,1.28-2.75,5.09,5.09,0,0,0,1.18-2.68c.14-1.18.35-2.09.38-3.11s0-2.81-1.26-3.47c0,0,.93,2.56.24,3.85a36.52,36.52,0,0,0-2.29,4.79c-.31,1.07-.28,2.37-1.52,3h0a5,5,0,0,0-.83-.25v-.28a44.56,44.56,0,0,1,.83-6c.15-.5,1-.66.95-1.18s-2.23-.68-2.29-.25l-.13,1.09c0,.42-.15.49-.87,1.26-.45.48-1.28,3.2-1.84,5.18l-.11,0-1.16-.65-2.25-1.29c-2.37-1.36-2.3-1.52-4.7-2s-1.72-.25-4-.56-5-.73-5.71-.19l2.49.26a11,11,0,0,1,3.07.46c1.26.21,3.33.21,4.24.7s1,.31,2,.85c.71.37,3.72,1.6,5.5,2.32l-.45-.06a7.22,7.22,0,0,0-2.13-.77,24.06,24.06,0,0,0-3.81.25c-.33.18,1.56.24,2.44.4a15.33,15.33,0,0,1-4.12-.16c-5-.9-10.28,1.89-13.24,4.92A20.22,20.22,0,0,0,.15,134a19.3,19.3,0,0,0,0,4.68H0v45.17H435ZM45.32,127.13h0l0,0Zm84.5-14.36a21.08,21.08,0,0,1,2.24.7l-1.37.72C130.4,113.7,130.11,113.22,129.82,112.77Zm1.2,2,1.53-1.09.15,0a13.3,13.3,0,0,0-1.61,1.18S131,114.79,131,114.74Zm58.93.79a17,17,0,0,0-2.51,3.66,1.42,1.42,0,0,0,.08-.18,40.88,40.88,0,0,1,2.69-4.33c.18-.22.52-.26.77-.37C190.67,114.7,190.34,115.1,190,115.53Zm-5.44,2.21a4.62,4.62,0,0,0-1.2-1.16l-.27-.1c0-.14-.12-.27-.17-.41L183,116c.6.66,1.31,1.41,1.84,2Zm147-77.5c2.85-.6,6.33-.92,8.82-1.21a22.93,22.93,0,0,0-1.39,5.77c-2.62-1.55-5.28-2.95-7.76-4.13Zm13.57-9.35c.56-.63,1.54-2,2.19-2.77a30.66,30.66,0,0,1-1.92,3.33A3.17,3.17,0,0,0,345.07,30.89Zm5.75-8-.46.56a11.35,11.35,0,0,0-2.92,2.26c-.38.67-2.06,3.49-2.61,4.82a14.64,14.64,0,0,0-2-2.11C344.06,27.71,348.31,24.69,350.82,22.89ZM335.28,35.71c1.37-1.54,3.08-4.37,4.58-5.21a7.08,7.08,0,0,0,.62-.38,5,5,0,0,1,.7,2.33c.25,2.86,0,0-1,2.37s-1.24.49-5.48,1.63l-.14,0C334.81,36.23,335.05,36,335.28,35.71Zm-149.07,76.7c1.5-.83,1.29-1.11,2.93-2,1.14-.65,5.48-3.75,8-5.57l-.46.56a11.13,11.13,0,0,0-2.92,2.26c-.45.8-2.8,4.72-2.8,5.42s1.66-1.94,2.62-3a26.5,26.5,0,0,1-2.35,3.92c-.07-.41-1.31-1-1.48-.72l-.47.79c-.19.31-.28.33-1,.72a22.68,22.68,0,0,0-3.08,3.41l-.07-.05-.57-.81c-.32-.45-.7-1-1.1-1.58l-.15-.22A12.11,12.11,0,0,1,186.21,112.41Zm-51.44-8c.86.84,2,1.55,2.42,2.69-1,.28-2,1.4-1.14,1.32s.22,0,.84,0c-.13.12-.26.23-.4.37l-.33-.18A53.58,53.58,0,0,1,131,105l.08,0-.1,0c-.8-.63-1.41-1.13-1.58-1.29-.49-.5-.14-1.52-.77-1.83a.34.34,0,0,0-.2,0c.17-.13.34-.26.51-.37a19.66,19.66,0,0,0,2.28-1.73A39.14,39.14,0,0,0,134.77,104.39Zm-7.43-1.68c-.46.59-.79,1.29-.54,1.47l1.23.88a1.35,1.35,0,0,1,.42.44,8.87,8.87,0,0,1-3.58-.22A18.47,18.47,0,0,1,127.34,102.71Zm-2.76,3a16.4,16.4,0,0,1,3.07.91,1.54,1.54,0,0,0,1.16-.19c0,.14.1.3.16.48.25.72,2.39,2.94,4.28,4.79h0c-1-.22-3-.77-5.18-1.36a36.82,36.82,0,0,0-3.82-4C124.33,106.07,124.44,105.88,124.58,105.67ZM42.45,121.36c.75,0,1.16-.65,1.4-1.26a1.31,1.31,0,0,1,.11.12A24.08,24.08,0,0,0,46,123c.52.51,1.28.91,1.24,1.77h0c-.14.11-.27.22-.41.35a.8.8,0,0,1-.16-.08,29.3,29.3,0,0,1-3.22-2.39c-.24-.23-.07-.72-.38-.87s-1.11,1-.88,1.12l.59.42c.22.17.23.24.45.87a16.21,16.21,0,0,0,2.4,2.64l0,0-.32.18a28,28,0,0,0-6.65-5.54C39.82,121.32,41.49,121.39,42.45,121.36Z"/></g></g></svg>