<svg xmlns="http://www.w3.org/2000/svg" viewBox="0 0 996.7 441.1"><defs><style>.cls-1{fill:#01222c;}.cls-2{fill:#fff;}</style></defs><g id="Layer_2" data-name="Layer 2"><g id="Layer_1-2" data-name="Layer 1"><rect class="cls-1" width="996.7" height="441.09"/><path class="cls-2" d="M745.73,91.64a3.88,3.88,0,0,0,.88-1.44C746.78,89.39,746.43,90.17,745.73,91.64Z"/><path class="cls-2" d="M86.36,290.79a1.56,1.56,0,0,0,.37-.47C86.83,290,86.67,290.3,86.36,290.79Z"/><path class="cls-2" d="M469.64,230.5a2.24,2.24,0,0,0-.4-.9C468.9,229.24,469.16,229.67,469.64,230.5Z"/><path class="cls-2" d="M111.62,300.52a1,1,0,0,0-.15-.35C111.33,300,111.43,300.2,111.62,300.52Z"/><path class="cls-2" d="M300.91,262.9a2.8,2.8,0,0,0,.94-.56C302.22,261.92,301.77,262.27,300.91,262.9Z"/><path class="cls-2" d="M397.75,188.51a.7.7,0,0,0,.22-.14C398.06,188.27,398,188.36,397.75,188.51Z"/><path class="cls-2" d="M361.54,215.76a20.69,20.69,0,0,0,5.63,4.44,21.76,21.76,0,0,0,8.23,2.54,22.77,22.77,0,0,0,6.84-.35,23,23,0,0,0,3.88-1.15A21.56,21.56,0,0,0,392,218a21,21,0,0,0,5.16-5.73,23.82,23.82,0,0,0,2.43-5.27,13.76,13.76,0,0,0,.73-6.68,22.48,22.48,0,0,0-3.31-7.61,32.2,32.2,0,0,1,3.28,1.16c1.06.38,2.06-1.1,2.37-1.47s-.06-1.57-.06-1.57a3.67,3.67,0,0,0-1.05-1.14c-.61-.37-1.74.73-1.15.67s0,0,.62,0,.86.57.39,1.47,0,0-.71.58-.44,0-1.83-.34c-.55-.11-1.67-.41-2.82-.73a21.07,21.07,0,0,0-2.08-2.18,2.9,2.9,0,0,1,.19-.31,9.42,9.42,0,0,1,1.67.49c.4.19,1.4-.54,1.88-.89a6.26,6.26,0,0,1-3.4.19,10.9,10.9,0,0,1,2.23-2.06,5.7,5.7,0,0,0,2.12-2c.62-1,1.18-1.77,1.64-2.68s1.18-2.55.41-3.55c0,0-.31,2.61-1.43,3.56a42.11,42.11,0,0,0-3.94,3.57c-.71.87-1.23,2.05-2.53,2.21h0a4.85,4.85,0,0,0-.59-.5c0-.09.08-.17.11-.25a50,50,0,0,1,3.26-5.19c.33-.4,1.09-.27,1.28-.75s-1.58-1.34-1.8-1l-.57,1c-.22.36-.34.39-1.27.86a27.77,27.77,0,0,0-3.72,4.07l-.09,0-.69-1c-.38-.55-.84-1.19-1.34-1.9-1.41-2-1.28-2.12-3.1-3.31a34,34,0,0,0-3.11-1.81c-1.77-1-3.86-2.29-4.69-2l2,1c.54,0,1.42.81,2.38,1.42s2.69,1.27,3.25,2,.71.6,1.32,1.41c.43.57,2.44,2.67,3.62,3.9l-.35-.2a5.63,5.63,0,0,0-1.45-1.4,19.28,19.28,0,0,0-3.3-1c-.35.05,1.21.72,1.88,1.15a12.26,12.26,0,0,1-3.39-1.49c-3.77-2.42-9.39-1.64-13.15.13a22.62,22.62,0,0,0-9.7,8.67,21.11,21.11,0,0,0-3,8.65,20.16,20.16,0,0,0,4.92,15.62Z"/><path class="cls-2" d="M320.54,255.17a1.8,1.8,0,0,0-.32-.72C319.94,254.15,320.15,254.5,320.54,255.17Z"/><path class="cls-2" d="M821.07,45.57a2.39,2.39,0,0,0-.4-.9C820.32,44.31,820.58,44.74,821.07,45.57Z"/><path class="cls-2" d="M995.89,93.09c-6.22-4.42-9.42-8.21-16.42-10.81-8.6-3.57-17.66-5.51-26.86-4.8a67,67,0,0,0-12.39,2.37c-.68-1.28-1.38-2.55-2.15-3.8a73,73,0,0,0-20-21.3,87.74,87.74,0,0,0-19.91-10.81c-8.6-3.57-17.66-5.5-26.86-4.79-9.95.76-23.54,5.57-33.4,10.32,1.81-4.11,5.22-9.13,7-12.12,2.28-3.91-3.13-8.15-4.4-9.45s-6.48-.25-6.48-.25a17.23,17.23,0,0,0-5.4,3.67c-1.9,2.2,1.83,6.83,2,4.56s0,0,.61-2.34,2.88-3.09,6.28-1.06,0,0,1.86,2.9-.46,1.65-2.6,6.84c-.84,2-2.81,6.21-4.89,10.51A93.41,93.41,0,0,0,821.48,60a10.16,10.16,0,0,1-1.14-.81,34.76,34.76,0,0,1,3.12-6.2c1-1.47-1.28-5.51-2.39-7.41.69,2.56.56,9.33-1.5,13a37.06,37.06,0,0,1-6.94-9.09c-2.17-4.11-3.17-6-6.91-8.66s-6.48-5-9.89-7-9.62-5.26-14.24-2.61c0,0,10.49,1.92,13.6,6.5s8.91,13,12,16S814.73,59,814.48,64h0A25.13,25.13,0,0,0,812.06,66l-1-.49c-4.41-2.34-17.64-12.52-19-13.92s-.4-4.23-2.2-5.11-6.56,5.61-5.23,6.56l3.48,2.46c1.33.95,1.4,1.4,2.66,5.06.79,2.28,8.48,9.92,14.18,15.37l-.27.32-4.44,2.34-8.67,4.53c-5.28,2.75-7.65,3.74-9.89,5.35a25.38,25.38,0,0,0-7.68-1.8c-5.14-.2-8,9.36-4.57,7.2s0,0,4-1.61a5.46,5.46,0,0,1,4.2-.16c-.53.55-1.09,1.14-1.72,1.82-6.1,6.57-4.14,4.82-9.51,11.26l-3.31,4c-4.27,1-10.39,2.31-16.71,3.63A166.12,166.12,0,0,0,725.32,107a16.1,16.1,0,0,1,0-2.3,67.54,67.54,0,0,1,12.15-2.34c3.18-.18,6.64-7.3,8.25-10.68-3,3.52-12.9,10.29-20.24,11.35a60.31,60.31,0,0,1,6-18.25c3.71-7,5.42-10.24,5.42-17.78s.57-13.47,0-19.93-2.28-17.78-10.84-21c0,0,8,15.48,4.57,24.17S720.94,75,719.8,82s.08,15.17-7.38,20h0a44,44,0,0,0-5.47-1c-.1-.6-.2-1.19-.28-1.73-1.14-8.08,0-35.55.57-38.78s5.71-4.85,5.14-8.08-14.83-2.7-14.83,0v7c0,2.69-.58,3.23-4.57,8.62-2.48,3.35-5.63,21.09-7.65,34l-.74,0-7.94-3.32c-4.43-1.86-9.7-4.08-15.43-6.51-16.26-6.9-15.92-8-31.66-9.09s-11.21-.37-26-.68-32.47-1-36.72,2.89L583,85.19c3.46-1.48,11.85.22,20.06.67s21.45-1.06,27.69,1.42,6.64,1.22,13.53,3.89c4.79,1.86,25.08,7.49,37,10.75l-2.9,0c-6.13-2.12-12.05-3.7-14.23-3.38-3.67.54-21.93,2.69-24.21,4.31-1.94,1.37,10.2.41,15.94.76-7.89,1.29-14.53,2.71-26.53,1.94-32.45-2.09-64.27,19.31-80.8,40.55-17.21,22.11-27.28,48.91-27.28,77.79,0,0,0,.11,0,.16-.47,0-.93,0-1.4.06-9.95.76-23.54,5.57-33.39,10.32,1.8-4.11,5.21-9.13,6.95-12.12,2.28-3.91-3.13-8.15-4.4-9.45s-6.48-.25-6.48-.25a17.23,17.23,0,0,0-5.39,3.67c-1.91,2.2,1.83,6.83,2,4.56s0,0,.61-2.34,2.88-3.09,6.29-1.06,0,0,1.85,2.9-.46,1.65-2.6,6.84c-.84,2-2.81,6.21-4.89,10.52a91.87,91.87,0,0,0-10.31,7.25,10.22,10.22,0,0,1-1.15-.81,34.68,34.68,0,0,1,3.13-6.2c1-1.47-1.29-5.51-2.4-7.41.7,2.56.56,9.33-1.5,12.95a37.11,37.11,0,0,1-6.94-9.09c-2.17-4.1-3.17-6-6.91-8.66s-6.48-5-9.89-7-9.62-5.25-14.24-2.61c0,0,10.5,1.92,13.6,6.5s8.91,13,12,16,7.56,5.3,7.31,10.29h0a25,25,0,0,0-2.42,2.06c-.34-.16-.66-.33-1-.49-4.41-2.34-17.64-12.52-19-13.91s-.39-4.24-2.2-5.12-6.56,5.61-5.22,6.56l3.47,2.47c1.34.95,1.4,1.39,2.67,5,.78,2.28,8.48,9.92,14.18,15.37-.1.11-.18.22-.28.32l-4.44,2.34c-2.48,1.31-5.44,2.86-8.66,4.53-9.16,4.77-9.57,4.23-15.67,10.8-3.44,3.71-4.32,4.77-5.39,6.14a9.94,9.94,0,0,0-2.63-2.84c-.43-.78-.83-1.58-1.29-2.34A58.91,58.91,0,0,0,399,262.6a70.33,70.33,0,0,0-16.1-8.74A47.14,47.14,0,0,0,361.16,250c-8.05.62-19,4.51-27,8.35,1.46-3.33,4.22-7.39,5.63-9.8,1.84-3.17-2.54-6.59-3.56-7.64s-5.24-.21-5.24-.21a14,14,0,0,0-4.37,3c-1.54,1.78,1.48,5.53,1.59,3.69s0,0,.49-1.89,2.33-2.5,5.09-.86,0,0,1.5,2.34-.37,1.34-2.1,5.54c-.68,1.65-2.28,5-4,8.5a75.61,75.61,0,0,0-8.34,5.87,7.22,7.22,0,0,1-.92-.66,27.31,27.31,0,0,1,2.52-5c.83-1.19-1-4.46-1.94-6,.56,2.08.46,7.55-1.21,10.48a30.06,30.06,0,0,1-5.61-7.35c-1.75-3.32-2.56-4.86-5.59-7-1.59-1.12-2.95-2.17-4.28-3.16.35-.5.7-1,1.07-1.63,2.6-4.27,4.93-7.46,6.87-11.28s5-10.69,1.72-14.89c0,0-1.27,11-6,14.94-2.71,2.27-6.74,5.66-10.25,8.83-2.68-1.23-6-2.12-8.63-.59a32.31,32.31,0,0,1,6.88,2.18,54.9,54.9,0,0,0-4.52,4.59c-3,3.65-5.18,8.61-10.65,9.26h0a22.34,22.34,0,0,0-2.45-2.09c.16-.37.31-.73.46-1.05,2.2-4.89,12.26-20.12,13.67-21.79s4.58-1.16,5.4-3.14-6.64-5.64-7.57-4.12-1.48,2.44-2.41,4-1.41,1.67-5.3,3.61C279.7,236.13,272,245.29,266.49,252l-.37-.22-2.91-4.08c-1.62-2.28-3.54-5-5.62-8-5.93-8.41-5.38-8.92-13-13.92s-5.59-3.32-13-7.6-16.22-9.59-19.74-8.55l8.29,4.4c2.28.13,6,3.42,10,5.95s11.32,5.35,13.65,8.48,3,2.53,5.56,6c1.81,2.37,10.22,11.19,15.18,16.34L263,250c-2.39-2.9-4.87-5.44-6.1-5.86-2-.72-12.12-4.56-13.84-4.28-1.47.24,5.07,3.06,7.88,4.85-4.48-1.46-8.36-2.49-14.22-6.26-15.84-10.18-39.46-6.9-55.22.53a95,95,0,0,0-40.75,36.44,90.25,90.25,0,0,0-9.88,22.62c-3.83.34-9,2.16-12.73,4a48.18,48.18,0,0,1,2.7-4.69c.88-1.52-1.22-3.16-1.71-3.66s-2.5-.1-2.5-.1a6.7,6.7,0,0,0-2.09,1.42c-.74.86.7,2.65.76,1.77s0,0,.23-.91,1.12-1.19,2.44-.41,0,0,.72,1.12-.18.64-1,2.65c-.33.79-1.09,2.41-1.9,4.07a37.8,37.8,0,0,0-4,2.81,3.58,3.58,0,0,1-.44-.31,12.82,12.82,0,0,1,1.21-2.4c.4-.57-.5-2.13-.93-2.87a8.49,8.49,0,0,1-.58,5,14.37,14.37,0,0,1-2.69-3.52,7.56,7.56,0,0,0-2.67-3.35c-1.45-1-2.51-1.93-3.83-2.72l-.06,0c.11-.39.19-.72.26-.93.33-1-1.83-3.27-1.83-3.27a10.62,10.62,0,0,0-3.68-1.55c-1.8-.28-3.23,3-1.93,2.36s0,0,1.48-.42,2.48.43,2.5,2.51a3.42,3.42,0,0,0-2.25.32,17.35,17.35,0,0,1,2.23.62c0,1.13-.1-.44-1,1.14-1,1.8-1.06.27-4.59.8-1.39.2-4.3.5-7.32.78a57.13,57.13,0,0,0-7.16-2.88,6.38,6.38,0,0,1,.1-.81,23.76,23.76,0,0,1,4.39-.35c1.13.06,2.66-2.31,3.38-3.44a15.31,15.31,0,0,1-7.64,3.2,21.66,21.66,0,0,1,2.92-6.19c1.62-2.33,2.37-3.4,2.7-6.06s.79-4.72.88-7,0-6.35-2.89-7.83c0,0,2.13,5.77.54,8.7s-4.52,8.37-5.23,10.8-.64,5.34-3.48,6.75h0a14.27,14.27,0,0,0-1.88-.57c0-.22,0-.43,0-.62-.05-2.9,1.57-12.53,1.91-13.65s2.22-1.49,2.17-2.65-5.11-1.53-5.23-.58l-.31,2.47c-.12.95-.35,1.11-2,2.85-1,1.09-2.92,7.22-4.2,11.69l-.26,0c-.72-.39-1.61-.9-2.65-1.48l-5.15-2.9c-5.43-3.07-5.26-3.43-10.76-4.45s-3.93-.57-9.14-1.26-11.39-1.64-13.06-.43l5.69.59c1.29-.39,4.17.54,7,1s7.61.47,9.7,1.59,2.29.69,4.6,1.9c1.6.84,8.5,3.63,12.56,5.25l-1-.13A16.16,16.16,0,0,0,57.3,290c-1.32,0-7.85.08-8.73.56s3.58.55,5.59.9a35.67,35.67,0,0,1-9.44-.36c-11.34-2-23.5,4.27-30.27,11.11a45.37,45.37,0,0,0-13,26.34,44,44,0,0,0,0,10.57h-.3v102H995.89Zm-891.16,220,0,0,.09-.06ZM298,280.64a49.06,49.06,0,0,1,5.11,1.57L300,283.84C299.32,282.74,298.65,281.66,298,280.64Zm2.74,4.45,3.51-2.47.33.12a31.27,31.27,0,0,0-3.67,2.65C300.84,285.29,300.78,285.19,300.73,285.09Zm134.78,1.78a37.83,37.83,0,0,0-5.72,8.27l.17-.41a94.92,94.92,0,0,1,6.14-9.79c.43-.5,1.19-.58,1.77-.83C437.17,285,436.41,285.89,435.51,286.87Zm-12.44,5a10.6,10.6,0,0,0-2.74-2.63l-.61-.22c-.12-.31-.28-.61-.41-.92.07-.1.15-.19.22-.28,1.38,1.48,3,3.18,4.2,4.42Zm336.19-175c6.52-1.37,14.5-2.09,20.18-2.74a50.88,50.88,0,0,0-3.18,13c-6-3.49-12.06-6.66-17.75-9.32Zm31-21.11c1.28-1.42,3.52-4.6,5-6.25a70.08,70.08,0,0,1-4.41,7.5A6.82,6.82,0,0,0,790.31,95.77ZM803.46,77.7l-1,1.27c-3.21,2-6.09,4-6.69,5.11-.86,1.5-4.7,7.86-6,10.86a31.63,31.63,0,0,0-4.53-4.74C788,88.59,797.72,81.76,803.46,77.7Zm-35.53,28.94c3.11-3.46,7-9.86,10.46-11.75.58-.32,1-.6,1.43-.86a11.17,11.17,0,0,1,1.59,5.25c.57,6.47,0,0-2.28,5.37s-2.85,1.1-12.55,3.67l-.3.07C766.83,107.82,767.39,107.24,767.93,106.64ZM427,279.83c3.43-1.89,2.94-2.51,6.7-4.62,2.61-1.47,12.55-8.45,18.37-12.58l-1,1.27c-3.21,2-6.08,4-6.69,5.11-1,1.81-6.39,10.64-6.39,12.22,0,1.35,3.79-4.36,6-6.78a60.45,60.45,0,0,1-5.38,8.85c-.17-.92-3-2.25-3.39-1.62l-1.08,1.78c-.42.68-.63.75-2.39,1.62-1.08.54-4.55,4.66-7,7.69l-.16-.1c-.36-.49-.8-1.11-1.31-1.83-.73-1-1.59-2.25-2.53-3.58l-.33-.48C422.51,283.91,424.83,281,427,279.83ZM309.3,261.71c2,1.9,4.61,3.5,5.55,6.07-2.29.64-4.49,3.18-2.62,3,2.22-.24.5-.06,1.94.12-.31.26-.61.53-.91.83l-.78-.39A125.27,125.27,0,0,1,300.74,263l.17-.13-.23.08c-1.83-1.42-3.23-2.55-3.6-2.92-1.13-1.12-.32-3.42-1.78-4.13a.72.72,0,0,0-.44-.05c.39-.29.78-.57,1.16-.83a42,42,0,0,0,5.22-3.91C303.82,254.89,307.29,259.76,309.3,261.71Zm-17-3.8c-1.06,1.35-1.81,2.93-1.25,3.32l2.81,2a3,3,0,0,1,1,1,20.38,20.38,0,0,1-8.19-.51A42.58,42.58,0,0,1,292.33,257.91Zm-6.33,6.7a36.12,36.12,0,0,1,7,2.05,3.56,3.56,0,0,0,2.66-.43l.37,1.08c.57,1.63,5.48,6.64,9.79,10.82h0c-2.29-.48-7-1.73-11.86-3.07a83.49,83.49,0,0,0-8.73-9.14A15.12,15.12,0,0,1,286,264.61ZM98.16,300c1.71,0,2.64-1.49,3.19-2.86a2.11,2.11,0,0,1,.25.27,54.93,54.93,0,0,0,4.64,6.2c1.19,1.15,2.92,2.05,2.83,4h0a8.5,8.5,0,0,0-.94.8l-.37-.19a70.32,70.32,0,0,1-7.37-5.39c-.54-.54-.15-1.64-.85-2s-2.54,2.17-2,2.54l1.35.95c.52.37.54.54,1,2,.31.88,3.28,3.84,5.49,5.95l-.1.12-.75.4c-3.61-4.46-9.91-9.29-15.21-12.51C92.15,299.93,96,300.09,98.16,300Z"/></g></g></svg>