<?xml version="1.0" encoding="utf-8"?>
<!-- Generator: Adobe Illustrator 25.1.0, SVG Export Plug-In . SVG Version: 6.00 Build 0)  -->
<svg version="1.1" id="Capa_1" xmlns="http://www.w3.org/2000/svg" xmlns:xlink="http://www.w3.org/1999/xlink" x="0px" y="0px"
	 viewBox="0 0 97.8 97.8" style="enable-background:new 0 0 97.8 97.8;" xml:space="preserve">
<style type="text/css">
	.st0{fill:#9B0A0A;}
</style>
<g>
	<path class="st0" d="M48.9,0C21.9,0,0,21.9,0,48.9s21.9,48.9,48.9,48.9s48.9-21.9,48.9-48.9S75.9,0,48.9,0z M30.6,82H16.8V37.8
		h13.7V82z M23.7,31.7c-4.4,0-8-3.6-8-8c0-4.4,3.6-8,8-8c4.4,0,8,3.6,8,8C31.7,28.1,28.1,31.7,23.7,31.7z M82,82H68.3V60.5
		c0-5.1-0.1-11.7-7.1-11.7c-7.1,0-8.2,5.6-8.2,11.4V82H39.2V37.8h13.2v6h0.2c1.8-3.5,6.3-7.1,13-7.1c13.9,0,16.5,9.2,16.5,21.1
		C82,57.7,82,82,82,82z"/>
</g>
</svg>
