<?xml version="1.0" encoding="utf-8"?>
<!-- Generator: Adobe Illustrator 25.1.0, SVG Export Plug-In . SVG Version: 6.00 Build 0)  -->
<svg version="1.1" id="Capa_1" xmlns="http://www.w3.org/2000/svg" xmlns:xlink="http://www.w3.org/1999/xlink" x="0px" y="0px"
	 viewBox="0 0 97.8 97.8" style="enable-background:new 0 0 97.8 97.8;" xml:space="preserve">
<style type="text/css">
	.st0{fill:#9B0A0A;}
</style>
<g>
	<path class="st0" d="M48.9,0C21.9,0,0,21.9,0,48.9s21.9,48.9,48.9,48.9s48.9-21.9,48.9-48.9S75.9,0,48.9,0z M78.4,35.8
		c0,0.6,0,1.2,0,1.7c0,20.9-15.9,42.5-42.5,42.5c-8.1,0-16-2.3-22.9-6.7c-0.1-0.1-0.2-0.3-0.1-0.4c0.1-0.2,0.2-0.3,0.4-0.2
		c1.1,0.1,2.3,0.2,3.5,0.2c6.3,0,12.3-2,17.4-5.7c-6.1-0.5-11.3-4.6-13.2-10.5c0-0.1,0-0.3,0.1-0.4c0.1-0.1,0.2-0.1,0.3-0.1
		c1.7,0.3,3.4,0.3,5,0.1c-6.3-1.9-10.7-7.8-10.7-14.5l0-0.2c0-0.1,0.1-0.2,0.2-0.3c0.1-0.1,0.2-0.1,0.4,0c1.6,0.9,3.4,1.5,5.3,1.7
		c-3.6-2.9-5.7-7.2-5.7-11.9c0-2.7,0.7-5.3,2.1-7.6c0.1-0.1,0.2-0.2,0.3-0.2c0.1,0,0.2,0,0.3,0.1c7.4,9,18.2,14.6,29.8,15.3
		c-0.2-1-0.3-2-0.3-3c0-8.4,6.8-15.2,15.2-15.2c4.1,0,8.1,1.7,10.9,4.6c3.2-0.7,6.3-1.8,9.1-3.5c0.1-0.1,0.3-0.1,0.4,0
		c0.1,0.1,0.2,0.2,0.1,0.4c-1,3-2.8,5.6-5.3,7.5c2.4-0.4,4.7-1.1,6.8-2.1c0.1-0.1,0.3,0,0.4,0.1c0.1,0.1,0.1,0.3,0,0.4
		C83.8,31.2,81.3,33.7,78.4,35.8z"/>
</g>
</svg>
